<?xml version="1.0" encoding="UTF-8" standalone="no"?>
<!-- Created with Inkscape (http://www.inkscape.org/) -->

<svg
   width="65.683411mm"
   height="68.942932mm"
   viewBox="0 0 65.683411 68.942932"
   version="1.1"
   id="svg5"
   xml:space="preserve"
   inkscape:version="1.2.2 (732a01da63, 2022-12-09)"
   sodipodi:docname="hypermea-logo.svg"
   inkscape:export-filename="hypermea-logo.png"
   inkscape:export-xdpi="55.263096"
   inkscape:export-ydpi="55.263096"
   xmlns:inkscape="http://www.inkscape.org/namespaces/inkscape"
   xmlns:sodipodi="http://sodipodi.sourceforge.net/DTD/sodipodi-0.dtd"
   xmlns="http://www.w3.org/2000/svg"
   xmlns:svg="http://www.w3.org/2000/svg"><sodipodi:namedview
     id="namedview7"
     pagecolor="#ffffff"
     bordercolor="#000000"
     borderopacity="0.25"
     inkscape:showpageshadow="2"
     inkscape:pageopacity="0.0"
     inkscape:pagecheckerboard="0"
     inkscape:deskcolor="#d1d1d1"
     inkscape:document-units="mm"
     showgrid="false"
     inkscape:zoom="0.73851712"
     inkscape:cx="72.442465"
     inkscape:cy="297.89425"
     inkscape:window-width="2048"
     inkscape:window-height="1009"
     inkscape:window-x="4472"
     inkscape:window-y="-8"
     inkscape:window-maximized="1"
     inkscape:current-layer="layer1" /><defs
     id="defs2" /><g
     inkscape:label="Layer 1"
     inkscape:groupmode="layer"
     id="layer1"
     transform="translate(-43.456847,-41.301676)"><g
       id="g145"
       transform="matrix(0.101973,0,0,0.101973,42.90972,40.995346)"><g
         id="#ffffffff" /><g
         id="#dd9da0ff"><path
           fill="#dd9da0"
           opacity="1"
           d="m 123.36,3.37 c 3.22,-0.4 6.48,-0.5 9.72,-0.16 128.65,10.87 257.33,21.35 386,32.02 24.65,2.2 49.35,3.94 73.96,6.51 19.12,2.46 36.81,13.95 46.82,30.43 8.86,14.1 11.59,31.65 8.26,47.89 -28.3,138.38 -56.6,276.75 -84.89,415.13 -6.01,31.63 -12.88,63.09 -19.44,94.61 -6.42,27.51 -32.62,48.42 -60.77,49.23 -8.96,0.48 -17.7,-1.84 -26.44,-3.46 -128,-24.71 -256,-49.4 -384,-74.13 C 62.44,599.34 51.86,598.32 42.53,593.5 22.84,584.29 8.53,564.64 5.93,543.04 4.29,532.35 6.63,521.66 7.79,511.06 26.84,360.45 45.36,209.77 64.38,59.16 68.34,29.95 93.94,5.66 123.36,3.37 Z"
           id="path133" /></g></g><g
       id="g181"
       transform="matrix(0.101973,0,0,0.101973,47.869276,44.476164)"><g
         id="#ffffffff-0" /><g
         id="#cf7377ff"><path
           fill="#cf7377"
           opacity="1"
           d="m 473.27,3.27 c 5.91,-0.34 11.84,-0.52 17.75,-0.85 17.74,-0.67 35.48,7 47.29,20.23 11.09,10.2 15.79,25.63 16.48,40.32 -9.76,153.21 -19.47,306.45 -29.26,459.67 -3.12,18.21 0.18,37.96 -9.11,54.73 -9.26,22.27 -34.19,35.36 -57.73,33.98 C 324.67,604.44 190.66,597.08 56.65,590.33 52.61,589.36 48.96,587.27 45.08,585.83 25.84,577.71 11.48,559.24 8.52,538.55 6.09,503.11 8.12,467.47 6.23,432 6.28,412 5.96,392 6.05,372 4.62,345.71 5.29,319.33 5.05,293 3.32,264.71 4.63,236.33 4.01,208 4.11,166.68 2.58,125.37 2.82,84.04 3.44,66.83 12.1,50.25 25.48,39.49 36.66,28.68 52.85,25.03 67.98,25.1 149.8,20.51 231.64,16.09 313.47,11.58 328.65,10.84 343.81,9.44 359.03,9.63 397.11,7.42 435.2,5.49 473.27,3.27 Z"
           id="path169" /></g></g><g
       id="#ffffffff-8"
       transform="matrix(0.101973,0,0,0.101973,55.345652,52.421836)" /><g
       id="#000000ff"
       transform="matrix(0.101973,0,0,0.101973,55.345652,52.421836)"
       style="fill:#ffffff"><path
         fill="#000000"
         opacity="1"
         d="m 194.3,5.03 c 0.38,-0.33 1.14,-1 1.51,-1.34 6.46,0.09 12.92,0.1 19.38,0 0.37,0.33 1.12,1 1.49,1.34 7.05,-0.85 13.74,0.64 20.5,1.84 35.22,6.05 68.17,23.56 94.62,47.34 4.92,5.07 9.93,10.05 14.98,14.99 28.06,31.23 47.02,70.59 55.24,111.66 0.53,5.21 2.55,10.15 1.96,15.44 0.33,0.39 0.98,1.15 1.31,1.53 -0.11,2.5 -0.2,5 -0.32,7.49 0.34,0.38 1,1.13 1.33,1.51 -0.08,6.86 -0.51,13.74 -0.18,20.59 0.29,0.35 0.86,1.04 1.15,1.38 -2.92,6.84 -0.39,15.01 -0.98,22.37 -0.33,0.38 -0.99,1.15 -1.32,1.53 0.12,2.49 0.21,4.98 0.32,7.47 -0.33,0.39 -0.98,1.15 -1.31,1.54 -1.98,25.38 -10.79,50.42 -21.2,73.81 -1.1,1.38 -2.07,2.86 -2.8,4.47 -7.45,16.01 -17.67,30.61 -28.98,44.06 -2.89,4.36 -7.8,7.01 -10.15,11.8 -5.29,2.8 -8.47,8.14 -13.14,11.7 -25.93,21.82 -57.28,38.38 -90.96,43.74 -2.16,1.29 -4.69,0.82 -7.06,0.7 -0.38,0.32 -1.14,0.97 -1.52,1.29 -2.83,-0.12 -5.65,-0.19 -8.48,-0.31 -0.37,0.34 -1.13,1 -1.5,1.33 -8.46,-0.19 -16.92,-0.18 -25.38,0 -0.38,-0.33 -1.14,-1 -1.52,-1.33 -2.82,0.12 -5.64,0.19 -8.46,0.3 -0.38,-0.31 -1.14,-0.95 -1.53,-1.27 -25.89,-2.03 -50.81,-12.87 -73.12,-26.15 -10.63,-7.2 -21.54,-14.28 -30.43,-23.59 -4.39,-2.83 -8.28,-6.55 -11.2,-10.88 C 35.9,358.95 16.21,316.65 7.9,273.12 7.63,266.55 5.13,260.4 6.03,253.71 c -0.33,-0.38 -1,-1.15 -1.33,-1.53 0.12,-5.5 0.25,-11.01 0.34,-16.51 -0.34,-0.37 -1.02,-1.11 -1.36,-1.48 0.06,-3.46 0.05,-6.92 0,-10.38 0.34,-0.37 1.02,-1.12 1.36,-1.5 -0.1,-5.5 -0.22,-10.99 -0.34,-16.49 0.33,-0.38 1,-1.14 1.33,-1.51 1.05,-28.06 10.83,-55.91 22.16,-81.82 2.84,-3.52 4.34,-7.87 6.44,-11.84 C 44.29,93 56.6,76.91 70.41,62.41 74.39,59.83 77.3,55.96 80.7,52.69 107.43,29.65 140.21,11.92 175.34,6.88 c 2.11,-2.06 5.27,-0.76 7.88,-0.84 0.4,-0.33 1.21,-0.98 1.61,-1.31 3.16,0.09 6.32,0.14 9.47,0.3 m -2.12,23.29 c -2.82,-0.08 -5.64,-0.15 -8.45,-0.34 -0.39,0.32 -1.17,0.97 -1.56,1.29 -3.77,-0.32 -7.66,0.49 -11.04,1.87 -28.09,4.99 -53.83,20.2 -75.39,38.6 -4.91,5.09 -9.9,10.1 -15,15 -9.72,11.16 -18.44,23.32 -25.76,36.24 -1.83,3.52 -3.13,7.37 -5.67,10.48 -6.42,15.13 -13.36,30.41 -16.24,46.73 -0.27,0.4 -0.82,1.21 -1.09,1.61 0.06,0.83 0.17,2.5 0.22,3.33 -2.67,10.54 -4.47,21.77 -3.88,33.05 -0.34,0.37 -1.01,1.12 -1.34,1.49 0.19,7.86 0.2,15.73 -0.03,23.59 0.34,0.39 1.02,1.17 1.35,1.56 -0.07,3.49 -0.1,6.99 -0.32,10.49 0.34,0.38 1.01,1.14 1.34,1.52 -0.1,2.14 -0.19,4.28 -0.33,6.42 0.33,0.39 0.98,1.19 1.31,1.58 0.07,2.34 -1.09,5.16 0.85,7.04 2.62,20.42 10.57,40.09 19.15,58.82 7.59,13.9 15.66,27.74 26.25,39.6 2.46,4.47 7.52,6.78 9.83,11.33 5.42,3.05 8.51,8.96 13.66,12.39 21.89,17.93 47.87,31.52 75.89,36.4 4.75,0.65 9.31,2.11 14.25,1.25 0.37,0.34 1.12,1.02 1.5,1.36 9.04,-0.42 18.1,-0.2 27.15,-0.12 3.05,-2.32 7,-0.07 10.23,-1.51 14.28,-2.26 28.85,-5.93 42.11,-12.31 55.52,-24.45 94.29,-78.7 106.77,-137.27 0.27,-0.4 0.81,-1.2 1.08,-1.6 -0.06,-0.84 -0.18,-2.54 -0.24,-3.38 0.31,-0.39 0.92,-1.18 1.22,-1.57 -1.01,-3.67 1.82,-6.75 0.77,-10.43 0.31,-0.39 0.94,-1.17 1.25,-1.56 -0.13,-2.48 -0.21,-4.96 -0.32,-7.44 0.33,-0.38 0.99,-1.14 1.32,-1.51 -0.19,-3.83 -0.21,-7.66 -0.32,-11.49 0.34,-0.37 1,-1.13 1.33,-1.51 -0.09,-6.87 -0.1,-13.74 0.01,-20.6 -0.33,-0.39 -1,-1.16 -1.33,-1.54 0.1,-3.83 0.12,-7.65 0.31,-11.47 -0.33,-0.39 -0.98,-1.16 -1.31,-1.54 0.1,-2.47 0.19,-4.95 0.32,-7.42 -0.32,-0.39 -0.96,-1.19 -1.28,-1.58 0.08,-1.49 0.18,-2.97 0.27,-4.46 -0.31,-0.39 -0.93,-1.17 -1.23,-1.56 0.7,-3.28 -1.79,-6.07 -0.8,-9.39 -0.26,-0.39 -0.77,-1.18 -1.03,-1.58 -8.14,-38.23 -27.65,-74.24 -55.22,-101.92 -23.21,-22.47 -52.67,-39.32 -84.48,-45.88 -6.54,-0.97 -12.72,-3.03 -19.44,-2.05 -0.38,-0.33 -1.12,-1.01 -1.5,-1.34 -7.87,0.27 -15.76,0.27 -23.63,0 -0.38,0.33 -1.13,1 -1.51,1.33 z"
         id="path148"
         style="fill:#ffffff" /><path
         fill="#000000"
         opacity="1"
         d="m 150.72,72.51 c 11.14,-8.05 24.39,-13.3 36.58,-19.25 -0.23,116.61 -0.02,233.23 -0.1,349.84 -13,-3.29 -24.53,-11.43 -36.44,-17.59 0.06,-47.14 -0.13,-94.29 0.09,-141.43 -19.24,0.15 -38.49,0.15 -57.73,0 1.92,26.09 12.69,51.81 28.93,72.57 -0.01,0.48 -0.01,1.45 -0.01,1.93 -7.61,7.09 -16.28,12.95 -23.47,20.52 -0.53,0 -1.61,0 -2.14,0 -18.29,-23 -32.96,-50.14 -37.56,-79.44 -2,-1.85 -0.5,-4.66 -1.11,-6.95 -1.74,-2.71 -0.71,-6.04 -0.72,-9.03 -0.34,-0.38 -1.02,-1.12 -1.35,-1.5 0.35,-13.24 -0.62,-26.59 2.17,-39.3 3.44,-24.93 13.72,-49.14 27.94,-70.08 3.2,-5.87 8.3,-10.44 11.48,-16.26 4.53,5.61 10.59,9.46 15.53,14.61 4.27,1.74 6,7.44 10.7,7.9 -14.51,17.41 -24.82,38.6 -28.55,60.99 -1.17,1.86 -0.84,4.06 -0.69,6.13 -0.33,0.39 -0.98,1.16 -1.31,1.55 0.11,1.76 0.19,3.52 0.27,5.28 19.17,-0.01 38.35,0.02 57.53,-0.01 -0.03,-46.83 0.04,-93.65 -0.04,-140.48 z"
         id="path150"
         style="fill:#ffffff" /><path
         fill="#000000"
         opacity="1"
         d="m 221.73,53.11 c 2.96,3.84 8.01,4.68 11.86,7.3 8.61,4.96 16.59,10.91 24.47,16.93 -0.12,42.1 0.07,84.2 -0.09,126.3 10.32,8.23 19.89,17.26 30.04,25.7 8.96,-8.01 19.29,-14.44 27.91,-22.83 0.04,-1.56 0.21,-3.22 -1.07,-4.38 -1.46,-13.65 -7.62,-26.37 -13.15,-38.83 -5.06,-7.73 -8.54,-16.71 -15.25,-23.23 7.73,-7.69 16.53,-14.17 24,-22.19 0.53,0.01 1.59,0.04 2.13,0.05 18.17,23.91 33.37,51.59 38.56,81.42 2.7,2.61 -0.74,6.97 2.08,9.55 0.05,3.24 -0.1,6.49 -0.04,9.74 -15.91,13.02 -31.54,26.32 -47.08,39.77 0.13,29.35 0.04,58.71 0.05,88.06 -3.03,2.59 -5.67,5.53 -7.77,8.91 -5.73,3.11 -9.05,9.08 -14.54,12.49 -4.51,3.87 -9.34,7.35 -14.2,10.75 0.26,-40.42 -0.09,-80.84 0.18,-121.25 -12.54,-11.54 -25.57,-22.48 -38.2,-33.91 -3.9,-1.87 -5.65,-6.55 -9.83,-7.89 -0.03,-54.15 0.09,-108.31 -0.06,-162.46 z"
         id="path152"
         style="fill:#ffffff" /></g></g></svg>
