<?xml version="1.0" encoding="UTF-8" standalone="no"?>
<!-- Created with Inkscape (http://www.inkscape.org/) -->

<svg
   width="91.282127mm"
   height="28.979095mm"
   viewBox="0 0 91.282127 28.979095"
   version="1.1"
   id="svg1"
   inkscape:version="1.2.2 (b0a8486541, 2022-12-01)"
   sodipodi:docname="hypermea-banner.svg"
   inkscape:export-filename="hypermea-banner.png"
   inkscape:export-xdpi="111.5695"
   inkscape:export-ydpi="111.5695"
   xmlns:inkscape="http://www.inkscape.org/namespaces/inkscape"
   xmlns:sodipodi="http://sodipodi.sourceforge.net/DTD/sodipodi-0.dtd"
   xmlns="http://www.w3.org/2000/svg"
   xmlns:svg="http://www.w3.org/2000/svg">
  <sodipodi:namedview
     id="namedview1"
     pagecolor="#ffffff"
     bordercolor="#000000"
     borderopacity="0.25"
     inkscape:showpageshadow="2"
     inkscape:pageopacity="0.0"
     inkscape:pagecheckerboard="0"
     inkscape:deskcolor="#d1d1d1"
     inkscape:document-units="mm"
     showgrid="false"
     inkscape:zoom="4.0106586"
     inkscape:cx="159.45012"
     inkscape:cy="87.516797"
     inkscape:window-width="2560"
     inkscape:window-height="1332"
     inkscape:window-x="3840"
     inkscape:window-y="0"
     inkscape:window-maximized="1"
     inkscape:current-layer="layer1" />
  <defs
     id="defs1" />
  <g
     inkscape:label="Layer 1"
     inkscape:groupmode="layer"
     id="layer1"
     transform="translate(-7.6729176,-59.266667)">
    <g
       id="g3670">
      <path
         d="m 8.906387,87.346182 q -0.560917,0 -0.894292,-0.291042 Q 7.67872,86.764098 7.67872,86.277264 h 0.47625 q 0,0.291042 0.206375,0.470959 0.206375,0.174625 0.545042,0.174625 0.328084,0 0.523876,-0.174625 0.195791,-0.179917 0.195791,-0.470959 0,-0.227541 -0.121708,-0.396875 -0.116417,-0.174625 -0.322792,-0.238125 l -0.5715,-0.179917 Q 8.223762,85.340639 8.001512,85.06018 7.784553,84.779722 7.784553,84.409305 q 0,-0.470959 0.306917,-0.751417 0.312209,-0.280459 0.825501,-0.280459 0.513292,0 0.820208,0.280459 0.306917,0.280458 0.306917,0.751417 h -0.47625 q 0,-0.280458 -0.179917,-0.4445 -0.174625,-0.164042 -0.470958,-0.164042 -0.301626,0 -0.486834,0.164042 -0.179917,0.164042 -0.179917,0.433917 0,0.211666 0.121709,0.365125 0.121708,0.153458 0.333375,0.22225 l 0.592667,0.1905 q 0.365125,0.116417 0.576792,0.41275 0.216958,0.296334 0.216958,0.687917 0,0.486834 -0.322791,0.777876 -0.322792,0.291042 -0.862543,0.291042 z m 2.016118,-0.05292 v -0.433917 h 1.031876 v -2.042584 h -0.926042 v -0.433917 h 1.402292 v 2.476501 h 0.978959 v 0.433917 z m 1.217084,-3.434294 q -0.174625,0 -0.275166,-0.08996 -0.100542,-0.08996 -0.100542,-0.243417 0,-0.15875 0.100542,-0.248708 0.100541,-0.09525 0.275166,-0.09525 0.174626,0 0.275167,0.09525 0.100542,0.08996 0.100542,0.248708 0,0.153459 -0.100542,0.243417 -0.100541,0.08996 -0.275167,0.08996 z m 1.825618,3.434294 v -2.910418 h 0.418042 v 0.34925 h 0.03175 q 0.03704,-0.179917 0.164042,-0.291042 0.132292,-0.111125 0.322792,-0.111125 0.174625,0 0.301625,0.111125 0.127,0.105833 0.179917,0.291042 h 0.03175 q 0.03704,-0.179917 0.169333,-0.291042 0.132292,-0.111125 0.328084,-0.111125 0.264583,0 0.428625,0.211667 0.164042,0.206375 0.164042,0.53975 v 2.211918 H 16.066 v -2.21721 q 0,-0.185208 -0.08467,-0.280458 -0.07937,-0.100542 -0.232834,-0.100542 -0.153458,0 -0.238125,0.100542 -0.08467,0.09525 -0.08467,0.275167 v 2.222501 h -0.381 v -2.21721 q 0,-0.185208 -0.08996,-0.280458 -0.08467,-0.100542 -0.238125,-0.100542 -0.148167,0 -0.232834,0.100542 -0.07937,0.09525 -0.07937,0.275167 v 2.222501 z m 3.349619,0.952501 v -3.862919 h 0.476251 v 0.555625 h 0.0053 q 0.03704,-0.28575 0.248709,-0.4445 0.216958,-0.164042 0.545042,-0.164042 0.439209,0 0.6985,0.291042 0.264584,0.28575 0.264584,0.788459 v 0.851958 q 0,0.502709 -0.264584,0.793751 -0.259291,0.291042 -0.6985,0.291042 -0.328084,0 -0.53975,-0.164042 -0.211667,-0.164042 -0.254001,-0.4445 h -0.01588 l 0.01058,0.661458 v 0.846668 z m 1.116543,-1.312334 q 0.301625,0 0.470958,-0.179917 0.174626,-0.179917 0.174626,-0.518584 v -0.79375 q 0,-0.338667 -0.174626,-0.518584 -0.169333,-0.179917 -0.470958,-0.179917 -0.291042,0 -0.465667,0.185209 -0.174625,0.185208 -0.174625,0.513292 v 0.79375 q 0,0.328084 0.174625,0.513292 0.174625,0.185209 0.465667,0.185209 z m 3.57716,0.359833 q -0.386292,0 -0.619125,-0.22225 -0.227542,-0.227542 -0.227542,-0.597959 v -2.60879 h -1.005417 v -0.433917 h 1.481667 v 3.04271 q 0,0.179917 0.100542,0.28575 0.100542,0.100542 0.269875,0.100542 h 0.899584 v 0.433917 z m 2.75166,0.05292 q -0.343958,0 -0.60325,-0.137584 -0.254,-0.137583 -0.396875,-0.386292 -0.137584,-0.254 -0.137584,-0.587375 v -0.79375 q 0,-0.338667 0.137584,-0.587376 0.142875,-0.248708 0.396875,-0.386292 0.259292,-0.137583 0.60325,-0.137583 0.343959,0 0.597959,0.137583 0.259292,0.137584 0.396875,0.386292 0.142875,0.248709 0.142875,0.587376 v 0.513292 h -1.809751 v 0.280458 q 0,0.343959 0.174625,0.529167 0.174625,0.179917 0.497417,0.179917 0.275167,0 0.4445,-0.09525 0.169334,-0.100542 0.206376,-0.296334 h 0.47625 q -0.04762,0.365126 -0.359834,0.582084 -0.306917,0.211667 -0.767292,0.211667 z m -0.672042,-1.751543 h 1.344084 v -0.153458 q 0,-0.343959 -0.174625,-0.529167 -0.169333,-0.185209 -0.497417,-0.185209 -0.322792,0 -0.497417,0.185209 -0.174625,0.185208 -0.174625,0.529167 z m 7.043197,1.751543 q -0.529167,0 -0.836084,-0.296334 -0.306917,-0.296333 -0.306917,-0.814917 V 84.48868 q 0,-0.518584 0.306917,-0.814917 0.306917,-0.296334 0.836084,-0.296334 0.518583,0 0.8255,0.301626 0.306917,0.296333 0.306917,0.809625 h -0.47625 q 0,-0.328083 -0.174625,-0.502709 -0.169334,-0.179916 -0.481542,-0.179916 -0.312209,0 -0.492125,0.174625 -0.174626,0.174625 -0.174626,0.502708 v 1.751543 q 0,0.328084 0.174626,0.508 0.179916,0.174626 0.492125,0.174626 0.312208,0 0.481542,-0.174626 0.174625,-0.179916 0.174625,-0.508 h 0.47625 q 0,0.513292 -0.306917,0.814917 -0.306917,0.296334 -0.8255,0.296334 z m 3.153827,-0.01058 q -0.529167,0 -0.836084,-0.296333 -0.301625,-0.301625 -0.301625,-0.814917 v -0.772584 q 0,-0.518584 0.301625,-0.814917 0.306917,-0.296334 0.836084,-0.296334 0.529167,0 0.830792,0.296334 0.306917,0.296333 0.306917,0.809625 v 0.777876 q 0,0.513292 -0.306917,0.814917 -0.301625,0.296333 -0.830792,0.296333 z m 0,-0.423333 q 0.312208,0 0.486833,-0.174625 0.174625,-0.174625 0.174625,-0.513292 v -0.772584 q 0,-0.338667 -0.174625,-0.513292 -0.174625,-0.174625 -0.486833,-0.174625 -0.306917,0 -0.486834,0.174625 -0.174625,0.174625 -0.174625,0.513292 v 0.772584 q 0,0.338667 0.174625,0.513292 0.179917,0.174625 0.486834,0.174625 z m 1.904992,0.381 v -2.910418 h 0.418042 v 0.34925 h 0.03175 q 0.03704,-0.179917 0.164042,-0.291042 0.132292,-0.111125 0.322792,-0.111125 0.174625,0 0.301625,0.111125 0.127,0.105833 0.179917,0.291042 h 0.03175 q 0.03704,-0.179917 0.169333,-0.291042 0.132292,-0.111125 0.328084,-0.111125 0.264583,0 0.428625,0.211667 0.164042,0.206375 0.164042,0.53975 v 2.211918 h -0.439209 v -2.21721 q 0,-0.185208 -0.08467,-0.280458 -0.07937,-0.100542 -0.232834,-0.100542 -0.153458,0 -0.238125,0.100542 -0.08467,0.09525 -0.08467,0.275167 v 2.222501 h -0.381 v -2.21721 q 0,-0.185208 -0.08996,-0.280458 -0.08467,-0.100542 -0.238125,-0.100542 -0.148167,0 -0.232834,0.100542 -0.07937,0.09525 -0.07937,0.275167 v 2.222501 z m 3.174994,0 v -2.910418 h 0.418042 v 0.34925 h 0.03175 q 0.03704,-0.179917 0.164042,-0.291042 0.132291,-0.111125 0.322791,-0.111125 0.174626,0 0.301626,0.111125 0.127,0.105833 0.179916,0.291042 h 0.03175 q 0.03704,-0.179917 0.169334,-0.291042 0.132292,-0.111125 0.328083,-0.111125 0.264584,0 0.428626,0.211667 0.164041,0.206375 0.164041,0.53975 v 2.211918 H 41.46595 v -2.21721 q 0,-0.185208 -0.08467,-0.280458 -0.07937,-0.100542 -0.232833,-0.100542 -0.153459,0 -0.238125,0.100542 -0.08467,0.09525 -0.08467,0.275167 v 2.222501 h -0.381 v -2.21721 q 0,-0.185208 -0.08996,-0.280458 -0.08467,-0.100542 -0.238125,-0.100542 -0.148167,0 -0.232833,0.100542 -0.07937,0.09525 -0.07937,0.275167 v 2.222501 z m 4.190994,0.05292 q -0.460375,0 -0.724959,-0.232834 -0.264583,-0.238125 -0.264583,-0.640292 0,-0.407458 0.264583,-0.640292 0.264584,-0.232833 0.714376,-0.232833 h 0.899584 v -0.291042 q 0,-0.264584 -0.164042,-0.41275 -0.15875,-0.148167 -0.4445,-0.148167 -0.254001,0 -0.428626,0.111125 -0.174625,0.111125 -0.216958,0.291042 h -0.47625 q 0.02646,-0.243417 0.174625,-0.428625 0.153458,-0.185209 0.396875,-0.285751 0.248708,-0.105833 0.550334,-0.105833 0.502708,0 0.79375,0.259292 0.291042,0.259292 0.291042,0.703792 v 2.000251 h -0.465667 v -0.555625 h -0.0053 q -0.03175,0.280458 -0.275167,0.4445 -0.238125,0.164042 -0.619125,0.164042 z m 0.116417,-0.375709 q 0.338667,0 0.555625,-0.169333 0.216959,-0.169334 0.216959,-0.433917 v -0.41275 h -0.889001 q -0.238125,0 -0.375709,0.132291 -0.137583,0.132292 -0.137583,0.359834 0,0.243417 0.164042,0.386292 0.169333,0.137583 0.465667,0.137583 z m 2.211911,0.322792 v -2.910418 h 0.476251 v 0.555625 h 0.0053 q 0.03704,-0.291042 0.238125,-0.449792 0.201084,-0.15875 0.534459,-0.15875 0.439209,0 0.6985,0.269875 0.259292,0.269875 0.259292,0.735542 v 1.957918 h -0.47625 v -1.905001 q 0,-0.312209 -0.169333,-0.47625 -0.164042,-0.169334 -0.449792,-0.169334 -0.296334,0 -0.470959,0.179917 -0.169333,0.179917 -0.169333,0.518584 v 1.852084 z m 4.106326,0.05292 q -0.433917,0 -0.703792,-0.291042 -0.264584,-0.291042 -0.264584,-0.788459 v -0.851959 q 0,-0.502708 0.264584,-0.79375 0.264583,-0.291042 0.703792,-0.291042 0.328083,0 0.53975,0.164042 0.211667,0.164041 0.248709,0.4445 h 0.01587 l -0.01058,-0.661459 v -0.846667 h 0.476251 v 3.862919 H 50.784554 V 86.73765 h -0.0053 q -0.03704,0.28575 -0.248709,0.449792 -0.211667,0.15875 -0.53975,0.15875 z m 0.15875,-0.41275 q 0.296333,0 0.465667,-0.185209 0.169333,-0.185208 0.169333,-0.513292 v -0.79375 q 0,-0.328084 -0.169333,-0.513292 -0.169334,-0.185209 -0.465667,-0.185209 -0.301625,0 -0.47625,0.179917 -0.174625,0.179917 -0.174625,0.518584 v 0.79375 q 0,0.338667 0.174625,0.518584 0.174625,0.179917 0.47625,0.179917 z m 3.09562,0.402166 q -0.449792,0 -0.735542,-0.206375 -0.28575,-0.206375 -0.28575,-0.566208 h 0.486834 q 0,0.164041 0.153458,0.259291 0.15875,0.08996 0.391584,0.08996 h 0.22225 q 0.280458,0 0.418042,-0.111125 0.137583,-0.116417 0.137583,-0.306917 0,-0.185209 -0.132292,-0.291042 -0.127,-0.111125 -0.370417,-0.148167 l -0.391583,-0.0635 q -0.433917,-0.07408 -0.640292,-0.275167 -0.206375,-0.201083 -0.206375,-0.555625 0,-0.396875 0.254,-0.608542 0.259292,-0.211667 0.740834,-0.211667 h 0.201083 q 0.4445,0 0.709084,0.201084 0.269875,0.195792 0.269875,0.523875 h -0.486834 q 0,-0.137583 -0.137583,-0.216958 -0.132292,-0.08467 -0.365125,-0.08467 h -0.201084 q -0.248708,0 -0.386292,0.105833 -0.132291,0.100542 -0.132291,0.291042 0,0.3175 0.449792,0.391584 l 0.391583,0.0635 q 0.470959,0.07408 0.682626,0.275167 0.216958,0.201083 0.216958,0.582083 0,0.402167 -0.259292,0.635001 -0.254,0.227541 -0.772584,0.227541 z m 2.550575,0.804334 0.423333,-1.645709 h 0.687918 l -0.687918,1.645709 z m 7.085533,-0.79375 q -0.56092,0 -0.89429,-0.291042 -0.33338,-0.291042 -0.33338,-0.777876 h 0.47625 q 0,0.291042 0.20638,0.470959 0.20637,0.174625 0.54504,0.174625 0.32808,0 0.52388,-0.174625 0.19579,-0.179917 0.19579,-0.470959 0,-0.227541 -0.12171,-0.396875 -0.11642,-0.174625 -0.32279,-0.238125 l -0.5715,-0.179917 q -0.3863,-0.121708 -0.60855,-0.402167 -0.21695,-0.280458 -0.21695,-0.650875 0,-0.470959 0.30691,-0.751417 0.31221,-0.280459 0.8255,-0.280459 0.5133,0 0.82021,0.280459 0.30692,0.280458 0.30692,0.751417 h -0.47625 q 0,-0.280458 -0.17992,-0.4445 -0.17462,-0.164042 -0.47096,-0.164042 -0.30162,0 -0.48683,0.164042 -0.17992,0.164042 -0.17992,0.433917 0,0.211666 0.12171,0.365125 0.12171,0.153458 0.33338,0.22225 l 0.59266,0.1905 q 0.36513,0.116417 0.5768,0.41275 0.21695,0.296334 0.21695,0.687917 0,0.486834 -0.32279,0.777876 -0.32279,0.291042 -0.86254,0.291042 z m 3.15382,0 q -0.34395,0 -0.60325,-0.137584 -0.254,-0.137583 -0.39687,-0.386292 -0.13758,-0.254 -0.13758,-0.587375 v -0.79375 q 0,-0.338667 0.13758,-0.587376 0.14287,-0.248708 0.39687,-0.386292 0.2593,-0.137583 0.60325,-0.137583 0.34396,0 0.59796,0.137583 0.2593,0.137584 0.39688,0.386292 0.14287,0.248709 0.14287,0.587376 v 0.513292 h -1.80975 v 0.280458 q 0,0.343959 0.17463,0.529167 0.17462,0.179917 0.49741,0.179917 0.27517,0 0.4445,-0.09525 0.16934,-0.100542 0.20638,-0.296334 h 0.47625 q -0.0476,0.365126 -0.35983,0.582084 -0.30692,0.211667 -0.7673,0.211667 z m -0.67204,-1.751543 h 1.34409 v -0.153458 q 0,-0.343959 -0.17463,-0.529167 -0.16933,-0.185209 -0.49742,-0.185209 -0.32279,0 -0.49741,0.185209 -0.17463,0.185208 -0.17463,0.529167 z m 2.83633,1.698626 v -2.910418 h 0.47625 v 0.555625 h 0.005 q 0.037,-0.291042 0.23813,-0.449792 0.20108,-0.15875 0.53446,-0.15875 0.45508,0 0.72496,0.291042 0.26987,0.28575 0.26987,0.777875 v 0.201084 h -0.47625 v -0.15875 q 0,-0.333376 -0.16933,-0.513292 -0.16934,-0.185209 -0.49213,-0.185209 -0.635,0 -0.635,0.698501 v 1.852084 z m 3.04799,0 v -0.433917 h 1.03188 v -2.042584 h -0.92604 v -0.433917 h 1.40229 v 2.476501 h 0.97896 v 0.433917 z m 1.21709,-3.434294 q -0.17463,0 -0.27517,-0.08996 -0.10054,-0.08996 -0.10054,-0.243417 0,-0.15875 0.10054,-0.248708 0.10054,-0.09525 0.27517,-0.09525 0.17462,0 0.27516,0.09525 0.10055,0.08996 0.10055,0.248708 0,0.153459 -0.10055,0.243417 -0.10054,0.08996 -0.27516,0.08996 z m 3.09561,3.476627 q -0.52916,0 -0.83608,-0.296333 -0.30163,-0.301625 -0.30163,-0.814917 v -0.772584 q 0,-0.518584 0.30163,-0.814917 0.30692,-0.296334 0.83608,-0.296334 0.52917,0 0.8308,0.296334 0.30691,0.296333 0.30691,0.809625 v 0.777876 q 0,0.513292 -0.30691,0.814917 -0.30163,0.296333 -0.8308,0.296333 z m 0,-0.423333 q 0.31221,0 0.48684,-0.174625 0.17462,-0.174625 0.17462,-0.513292 v -0.772584 q 0,-0.338667 -0.17462,-0.513292 -0.17463,-0.174625 -0.48684,-0.174625 -0.30691,0 -0.48683,0.174625 -0.17463,0.174625 -0.17463,0.513292 v 0.772584 q 0,0.338667 0.17463,0.513292 0.17992,0.174625 0.48683,0.174625 z m 3.16971,0.433917 q -0.50271,0 -0.80434,-0.296334 -0.30162,-0.301625 -0.30162,-0.814917 v -1.852084 h 0.47625 v 1.852084 q 0,0.328084 0.16933,0.513292 0.16934,0.179917 0.46038,0.179917 0.29633,0 0.46566,-0.179917 0.17463,-0.185208 0.17463,-0.513292 v -1.852084 h 0.47625 v 1.852084 q 0,0.513292 -0.30692,0.814917 -0.30691,0.296334 -0.80962,0.296334 z m 3.09033,-0.01058 q -0.4498,0 -0.73555,-0.206375 -0.28575,-0.206375 -0.28575,-0.566208 h 0.48684 q 0,0.164041 0.15346,0.259291 0.15875,0.08996 0.39158,0.08996 h 0.22225 q 0.28046,0 0.41804,-0.111125 0.13758,-0.116417 0.13758,-0.306917 0,-0.185209 -0.13229,-0.291042 -0.127,-0.111125 -0.37041,-0.148167 l -0.39159,-0.0635 q -0.43391,-0.07408 -0.64029,-0.275167 -0.20637,-0.201083 -0.20637,-0.555625 0,-0.396875 0.254,-0.608542 0.25929,-0.211667 0.74083,-0.211667 h 0.20108 q 0.4445,0 0.70909,0.201084 0.26987,0.195792 0.26987,0.523875 h -0.48683 q 0,-0.137583 -0.13759,-0.216958 -0.13229,-0.08467 -0.36512,-0.08467 h -0.20108 q -0.24871,0 -0.3863,0.105833 -0.13229,0.100542 -0.13229,0.291042 0,0.3175 0.44979,0.391584 l 0.39159,0.0635 q 0.47096,0.07408 0.68262,0.275167 0.21696,0.201083 0.21696,0.582083 0,0.402167 -0.25929,0.635001 -0.254,0.227541 -0.77258,0.227541 z m 5.11703,-0.04233 1.00541,-3.862919 h 0.6403 l 1.00012,3.862919 h -0.48154 l -0.254,-1.026584 h -1.16946 l -0.254,1.026584 z m 0.83608,-1.428751 h 0.97367 l -0.29633,-1.190626 q -0.0847,-0.338666 -0.1323,-0.566208 -0.0476,-0.227542 -0.0582,-0.296334 -0.0106,0.06879 -0.0582,0.296334 -0.0476,0.227542 -0.1323,0.560917 z m 2.56116,1.428751 v -3.862919 h 1.24354 q 0.53975,0 0.85725,0.312209 0.32279,0.306916 0.32279,0.8255 0,0.518584 -0.32279,0.830792 -0.3175,0.306917 -0.85725,0.306917 h -0.76729 v 1.587501 z m 0.47625,-2.016126 h 0.76729 q 0.31221,0 0.49741,-0.1905 0.19051,-0.195792 0.19051,-0.518584 0,-0.328083 -0.19051,-0.518584 -0.1852,-0.1905 -0.49741,-0.1905 h -0.76729 z m 2.76753,2.016126 v -0.433917 h 0.78846 v -2.995102 h -0.78846 v -0.433917 h 2.06375 v 0.433917 h -0.78845 v 2.995085 h 0.78845 v 0.433917 z m 4.11692,0.04233 q -0.4498,0 -0.73555,-0.206375 -0.28575,-0.206375 -0.28575,-0.566208 h 0.48684 q 0,0.164041 0.15346,0.259291 0.15875,0.08996 0.39158,0.08996 h 0.22225 q 0.28046,0 0.41804,-0.111125 0.13758,-0.116417 0.13758,-0.306917 0,-0.185209 -0.13229,-0.291042 -0.127,-0.111125 -0.37041,-0.148167 l -0.39159,-0.0635 q -0.43392,-0.07408 -0.64029,-0.275167 -0.20638,-0.201083 -0.20638,-0.555625 0,-0.396875 0.254,-0.608542 0.2593,-0.211667 0.74084,-0.211667 h 0.20108 q 0.4445,0 0.70909,0.201084 0.26987,0.195792 0.26987,0.523875 h -0.48683 q 0,-0.137583 -0.13759,-0.216958 -0.13229,-0.08467 -0.36512,-0.08467 h -0.20108 q -0.24871,0 -0.3863,0.105833 -0.13229,0.100542 -0.13229,0.291042 0,0.3175 0.44979,0.391584 l 0.39159,0.0635 q 0.47096,0.07408 0.68262,0.275167 0.21696,0.201083 0.21696,0.582083 0,0.402167 -0.25929,0.635001 -0.254,0.227541 -0.77258,0.227541 z"
         id="text419"
         style="font-size:5.29167px;font-family:'JetBrains Mono';-inkscape-font-specification:'JetBrains Mono, Normal';fill:#308c88;stroke:#102e2d;stroke-width:0;stroke-opacity:1"
         aria-label="Simple Commands, Serious APIs" />
      <path
         d="m 16.929932,76.177448 q -0.925708,0 -1.422411,-0.406405 -0.474143,-0.406387 -0.496723,-0.812793 l -0.02265,-0.383827 v -7.089438 q 0,-1.78364 -0.948286,-2.280362 -0.451545,-0.225773 -1.151461,-0.225773 -1.399832,0 -2.528714,1.151461 -1.1063221,1.128901 -1.1063221,2.032011 v 8.015126 H 7.6729146 V 59.266664 h 1.5804463 v 8.195742 q 0.3612475,-0.970847 1.3772531,-1.806219 1.016005,-0.85797 2.280362,-0.85797 2.190045,0 2.91254,0.767653 0.745075,0.745074 0.745075,1.941694 v 7.066859 q 0,0.654758 0.248351,1.016005 0.270931,0.338669 0.519283,0.361248 l 0.270931,0.04512 h 0.699916 v 0.18067 z m 4.718722,4.041442 q -0.722495,1.603025 -1.78364,1.603025 -0.474143,0 -1.106322,-0.158016 v -0.180671 q 0.519302,0.135363 0.925689,0.135363 1.15148,0 1.761079,-1.399813 l 1.896536,-4.041442 h -0.02265 L 19.119865,64.888421 h 1.580446 l 3.499561,9.414959 3.454421,-7.157176 q 0.270931,-0.474124 0.270931,-1.128882 0,-0.654758 -0.361247,-0.993426 l 0.13555,-0.13555 q 0.09024,0.04512 0.225791,0.270931 0.158017,0.225792 0.180671,0.406406 0.04512,0.18067 0.04512,0.338668 0,0.6096 -0.270931,1.241778 l -4.334951,9.031132 z m 7.969931,-15.330357 h 1.580446 v 2.799645 q 0.383827,-1.038565 1.422393,-1.964254 1.038584,-0.925707 2.348099,-0.925707 4.583304,0 4.583304,5.373536 0,6.096012 -5.915398,6.096012 -1.061145,0 -2.438398,-0.496722 v 6.050872 h -1.580446 z m 5.328359,0.09024 q -1.399813,0 -2.528714,1.219199 -1.128882,1.196619 -1.219199,2.167466 v 7.202334 q 1.377253,0.519283 2.415819,0.519283 4.35753,0 4.35753,-5.937958 0,-5.170324 -3.025436,-5.170324 z m 7.947371,5.689607 q 0,2.799663 0.970847,4.10916 0.993426,1.309515 2.596451,1.309515 2.257783,0 4.018863,-0.677337 l 0.06777,0.158017 q -1.806219,0.699916 -4.086581,0.699916 -2.257783,0 -3.680175,-1.354674 -1.422411,-1.354673 -1.422411,-4.176898 0,-2.822224 1.49013,-4.380091 1.490148,-1.557886 3.793089,-1.557886 1.851378,0 3.115735,1.106322 1.264357,1.106322 1.264357,3.273788 0,0.112896 0,0.225773 h -8.060286 q -0.06777,0.609599 -0.06777,1.264357 z m 6.592735,-1.44497 q -0.02266,-2.167485 -0.835391,-3.206051 -0.812793,-1.038584 -2.099729,-1.038584 -1.286936,0 -2.302942,1.128882 -0.993426,1.128901 -1.264357,3.115753 z m 6.773292,-3.364105 v -0.474124 q -1.016005,0.406387 -1.851377,1.648165 -0.835372,1.219217 -0.88053,2.302941 v 6.841087 H 51.947989 V 64.888458 h 1.580446 v 3.589878 q 0.361247,-1.309515 1.377234,-2.460977 1.016005,-1.174059 2.302941,-1.219217 h 0.09024 q 0.451564,0 0.745074,0.316089 0.316089,0.29351 0.316089,0.745074 0,0.451564 -0.316089,0.745075 -0.29351,0.29351 -0.745074,0.29351 -0.451564,0 -0.745074,-0.29351 -0.29351,-0.293511 -0.29351,-0.745075 z M 73.66783,67.48491 q 0,-1.377253 -0.361229,-1.941694 -0.361247,-0.564441 -1.377252,-0.564441 -1.354674,0 -2.415837,1.128882 -1.038566,1.128901 -1.038566,2.032011 v 8.037706 H 66.894481 V 67.48491 q 0,-1.377253 -0.361229,-1.941694 -0.361247,-0.564441 -1.535306,-0.564441 -1.174041,0 -2.235204,1.083724 -1.038584,1.083742 -1.128882,2.009431 v 8.105444 H 60.053413 V 64.888458 h 1.580447 v 2.551294 q 0.361247,-0.970847 1.332094,-1.806219 0.970847,-0.835391 2.167467,-0.835391 1.196619,0 1.896535,0.225791 0.722495,0.203194 1.016005,0.654758 0.29351,0.451545 0.361248,0.790214 0.06778,0.338668 0.06778,0.948267 0.361228,-0.970846 1.309515,-1.783639 0.948268,-0.835391 2.031992,-0.835391 1.083742,0 1.7385,0.18067 0.654757,0.180671 0.970847,0.406406 0.338668,0.225773 0.496703,0.654758 0.180671,0.428966 0.203213,0.699897 0.02265,0.27095 0.02265,0.767653 v 7.06686 q 0,0.654757 0.248351,1.016005 0.270931,0.338668 0.541862,0.361247 l 0.248352,0.04512 h 0.699916 v 0.180671 h -1.377253 q -0.925688,0 -1.422392,-0.406406 -0.474143,-0.406387 -0.496722,-0.812793 l -0.02265,-0.383827 z m 5.531553,3.183472 q 0,2.799663 0.970847,4.10916 0.993426,1.309515 2.596451,1.309515 2.257783,0 4.018844,-0.677337 l 0.06777,0.158017 q -1.806219,0.699916 -4.086581,0.699916 -2.257783,0 -3.680194,-1.354674 -1.422393,-1.354673 -1.422393,-4.176898 0,-2.822224 1.49013,-4.380091 1.49013,-1.557886 3.793071,-1.557886 1.851396,0 3.115753,1.106322 1.264357,1.106322 1.264357,3.273788 0,0.112896 0,0.225773 h -8.060285 q -0.06777,0.609599 -0.06777,1.264357 z m 6.592734,-1.444972 q -0.02265,-2.167485 -0.83539,-3.206051 -0.812793,-1.038584 -2.099729,-1.038584 -1.286936,0 -2.302942,1.128882 -0.993426,1.128901 -1.264357,3.115753 z m 12.462919,6.953964 q -1.535288,0 -2.099729,-0.587021 -0.519302,-0.496722 -0.519302,-0.857951 v -0.474143 q -1.106303,2.009431 -3.544719,2.009431 -2.844803,0 -3.22863,-2.573872 -0.04512,-0.270931 -0.04512,-0.541881 0,-0.29351 0.09024,-0.632178 0.09024,-0.33865 0.519301,-0.745056 0.857952,-0.812811 3.770492,-0.993426 0.722495,-0.06777 1.332095,-0.06777 0.609599,0 1.106303,0.04512 V 67.01071 q -0.04512,-0.02265 0,-0.203212 0.04512,-0.203193 -0.09024,-0.496703 -0.112896,-0.31609 -0.316089,-0.6096 Q 95.026424,65.407666 94.507142,65.204473 93.98784,64.9787 93.152468,64.9787 q -0.835372,0 -1.964273,0.316089 -1.106303,0.29351 -1.625604,0.587021 l -0.09024,-0.158017 q 2.009431,-0.925707 4.0866,-0.925707 2.32552,0 3.070576,0.83539 0.58702,0.654758 0.58702,1.377253 v 7.563563 q 0,0.654758 0.24837,1.016005 0.270931,0.338669 0.541862,0.361248 l 0.248352,0.04512 h 0.699916 v 0.18067 z m -5.802503,-0.09024 q 1.196639,0 2.144906,-0.812793 0.970847,-0.835372 1.038566,-1.603025 v -2.731927 q -0.609599,-0.04512 -1.241778,-0.04512 -0.609599,0 -1.219199,0.06777 -1.715921,0.203213 -2.235203,0.767654 -0.519283,0.564441 -0.519283,1.557867 0,0.18067 0.02265,0.406406 0.203212,2.393239 2.009431,2.393239 z"
         id="text1091"
         style="font-size:12.0593px;font-family:Italiana;-inkscape-font-specification:'Italiana, Normal';white-space:pre;fill:#308c88;stroke:#808080;stroke-width:0"
         aria-label="hypermea" />
      <path
         style="fill:#75b2af;fill-opacity:1;stroke:#75b2af;stroke-width:0.1;stroke-dasharray:none;stroke-opacity:1"
         d="M 31.453372,77.835849 H 58.285491"
         id="path1" />
      <path
         style="fill:#75b2af;fill-opacity:1;stroke:#75b2af;stroke-width:0.1;stroke-dasharray:none;stroke-opacity:1"
         d="m 28.302675,77.835758 h 1.043893"
         id="path1-1" />
    </g>
  </g>
</svg>
