<?xml version="1.0" encoding="UTF-8" standalone="no"?>
<!-- Uploaded to: SVG Repo, www.svgrepo.com, Generator: SVG Repo Mixer Tools -->

<svg
   fill="#000000"
   version="1.1"
   id="Scientist"
   width="800px"
   height="800px"
   viewBox="0 0 300 300"
   xml:space="preserve"
   sodipodi:docname="experimental.svg"
   inkscape:version="1.4.1-rc (d9e8dc1fe0, 2025-03-10)"
   xmlns:inkscape="http://www.inkscape.org/namespaces/inkscape"
   xmlns:sodipodi="http://sodipodi.sourceforge.net/DTD/sodipodi-0.dtd"
   xmlns="http://www.w3.org/2000/svg"
   xmlns:svg="http://www.w3.org/2000/svg"><defs
   id="defs1" /><sodipodi:namedview
   id="namedview1"
   pagecolor="#ffffff"
   bordercolor="#000000"
   borderopacity="0.25"
   inkscape:showpageshadow="2"
   inkscape:pageopacity="0.0"
   inkscape:pagecheckerboard="0"
   inkscape:deskcolor="#d1d1d1"
   inkscape:zoom="0.955"
   inkscape:cx="400"
   inkscape:cy="400"
   inkscape:window-width="1920"
   inkscape:window-height="972"
   inkscape:window-x="1920"
   inkscape:window-y="0"
   inkscape:window-maximized="1"
   inkscape:current-layer="Scientist" />
<path
   d="M209.4,75.4c0-4.1,3.4-7.5,7.5-7.5s7.5,3.4,7.5,7.5s-3.4,7.5-7.5,7.5S209.4,79.5,209.4,75.4z M234.7,65.3  c3,0,5.5-2.5,5.5-5.5s-2.5-5.5-5.5-5.5s-5.5,2.5-5.5,5.5S231.7,65.3,234.7,65.3z M148,139h-22.4c-4.6,0-8.7-1.8-11.6-5v67h-8v81.5  c0,6.9-5.6,12.5-12.5,12.5S81,289.4,81,282.5V201h-8v81.5c0,6.9-5.6,12.5-12.5,12.5S48,289.4,48,282.5V201h-8l0-32.9  c-2.4,2.4-5.8,3.9-9.5,3.9c-7.4,0-13.5-6.1-13.5-13.5V87c0-16,13-29,29-29h14.2L72,76.6V58h10v18.6L93.8,58H108c16,0,29,13,29,29v25  h11V97h17v15h4.4c7.5,0,13.6,6.1,13.6,13.6c0,9.3-8.1,13.6-13.6,13.6H165v7.4c0,4.7-3.8,8.5-8.5,8.5s-8.5-3.8-8.5-8.5L148,139  L148,139z M165,120v11.1h4.4c3.1,0,5.6-2.2,5.6-5.6c0-3.1-2.5-5.6-5.6-5.6L165,120L165,120z M148,131v-11h-19V87  c0-11.6-9.4-21-21-21h-9.8L77,99.5L55.8,66H46c-11.6,0-21,9.4-21,21v71.5c0,3,2.5,5.5,5.5,5.5s5.5-2.5,5.5-5.5V97l12,0.1l0,96h58  l0-96h12v26.5c0,4.2,3.4,7.5,7.6,7.5H148z M77,52.2c12.6,0,22.9-10.2,22.9-22.9S89.6,6.5,77,6.5S54.1,16.7,54.1,29.3  S64.4,52.2,77,52.2z M283,171v12H148v-12h36.9l21.1-43.5V104h-4v-7h30v7h-4v23.5l21.1,43.5H283z M204.3,147h25.4l-8.7-17.9V104h-8  v25.1L204.3,147z"
   id="path1" />
<path
   style="fill:#e6e6e6;stroke:#e6e6e6;stroke-width:0"
   d="M 128.79581,386.38743 V 258.11518 H 112.04188 95.287958 l -0.0039,84.03142 c -0.0038,81.44475 -0.06672,84.13442 -2.04425,87.37766 -4.202857,6.89288 -10.832901,8.87613 -17.769645,5.31544 -9.089181,-4.66556 -8.454442,3.49835 -8.454442,-108.73964 0,-95.27117 0.07929,-99.37353 2.071359,-107.16243 2.819954,-11.02591 6.612857,-17.66243 14.798961,-25.89404 7.881272,-7.92508 18.430469,-13.63199 28.609949,-15.47741 3.41729,-0.61951 12.87814,-1.12639 21.02412,-1.12639 h 14.81086 l 28.13957,44.50262 c 15.47677,24.47644 28.4652,44.50262 28.86318,44.50262 0.39798,0 13.37902,-20.0235 28.84677,-44.49667 l 28.12318,-44.49667 14.72916,-0.006 c 18.0568,-0.007 24.87848,1.16052 35.00906,5.99325 9.5748,4.56759 19.93786,14.54326 24.87089,23.94119 6.22106,11.85172 6.51015,14.82706 6.52725,67.18003 l 0.0155,47.3822 h 25.13089 25.13089 v 14.13612 14.13613 l -31.15183,-0.023 c -28.0458,-0.0207 -31.56946,-0.21573 -35.34032,-1.9561 -5.06909,-2.33954 -8.25927,-5.65448 -10.42122,-10.82879 -1.35962,-3.25401 -1.62066,-9.87171 -1.62066,-41.08518 V 258.11518 H 298.42932 281.67539 V 386.38743 514.65969 H 205.2356 128.79581 Z"
   id="path2"
   transform="scale(0.375)" /><path
   style="fill:#e6e6e6;stroke:#e6e6e6;stroke-width:0"
   d="m 546.61174,390.31414 c 0.008,-0.43194 4.95583,-10.85728 10.99476,-23.16742 l 10.97989,-22.38207 v -33.37709 -33.37709 h 9.94764 9.94765 v 32.92397 32.92397 l 11.44338,23.62054 11.44338,23.62053 h -32.38579 c -17.81219,0 -32.37909,-0.35341 -32.37091,-0.78534 z"
   id="path3"
   transform="scale(0.375)" /><path
   style="fill:#e6e6e6;stroke:#e6e6e6;stroke-width:0"
   d="M 440.8377,335.12598 V 321.0373 l 3.67191,-0.68885 c 14.8359,-2.78323 25.64786,8.72752 19.79095,21.07005 -2.32087,4.89086 -8.65126,7.79616 -16.98718,7.79616 h -6.47568 z"
   id="path4"
   transform="scale(0.375)" /></svg>
