<?xml version="1.0" encoding="UTF-8" ?>
<!DOCTYPE svg PUBLIC "-//W3C//DTD SVG 1.1//EN" "http://www.w3.org/Graphics/SVG/1.1/DTD/svg11.dtd">
<svg width="411pt" height="458pt" viewBox="0 0 411 458" version="1.1" xmlns="http://www.w3.org/2000/svg">
<g id="#ffffffff">
</g>
<g id="#000000ff">
<path fill="#000000" opacity="1.00" d=" M 194.30 5.03 C 194.68 4.70 195.44 4.03 195.81 3.69 C 202.27 3.78 208.73 3.79 215.19 3.69 C 215.56 4.02 216.31 4.69 216.68 5.03 C 223.73 4.18 230.42 5.67 237.18 6.87 C 272.40 12.92 305.35 30.43 331.80 54.21 C 336.72 59.28 341.73 64.26 346.78 69.20 C 374.84 100.43 393.80 139.79 402.02 180.86 C 402.55 186.07 404.57 191.01 403.98 196.30 C 404.31 196.69 404.96 197.45 405.29 197.83 C 405.18 200.33 405.09 202.83 404.97 205.32 C 405.31 205.70 405.97 206.45 406.30 206.83 C 406.22 213.69 405.79 220.57 406.12 227.42 C 406.41 227.77 406.98 228.46 407.27 228.80 C 404.35 235.64 406.88 243.81 406.29 251.17 C 405.96 251.55 405.30 252.32 404.97 252.70 C 405.09 255.19 405.18 257.68 405.29 260.17 C 404.96 260.56 404.31 261.32 403.98 261.71 C 402.00 287.09 393.19 312.13 382.78 335.52 C 381.68 336.90 380.71 338.38 379.98 339.99 C 372.53 356.00 362.31 370.60 351.00 384.05 C 348.11 388.41 343.20 391.06 340.85 395.85 C 335.56 398.65 332.38 403.99 327.71 407.55 C 301.78 429.37 270.43 445.93 236.75 451.29 C 234.59 452.58 232.06 452.11 229.69 451.99 C 229.31 452.31 228.55 452.96 228.17 453.28 C 225.34 453.16 222.52 453.09 219.69 452.97 C 219.32 453.31 218.56 453.97 218.19 454.30 C 209.73 454.11 201.27 454.12 192.81 454.30 C 192.43 453.97 191.67 453.30 191.29 452.97 C 188.47 453.09 185.65 453.16 182.83 453.27 C 182.45 452.96 181.69 452.32 181.30 452.00 C 155.41 449.97 130.49 439.13 108.18 425.85 C 97.55 418.65 86.64 411.57 77.75 402.26 C 73.36 399.43 69.47 395.71 66.55 391.38 C 35.90 358.95 16.21 316.65 7.90 273.12 C 7.63 266.55 5.13 260.40 6.03 253.71 C 5.70 253.33 5.03 252.56 4.70 252.18 C 4.82 246.68 4.95 241.17 5.04 235.67 C 4.70 235.30 4.02 234.56 3.68 234.19 C 3.74 230.73 3.73 227.27 3.68 223.81 C 4.02 223.44 4.70 222.69 5.04 222.31 C 4.94 216.81 4.82 211.32 4.70 205.82 C 5.03 205.44 5.70 204.68 6.03 204.31 C 7.08 176.25 16.86 148.40 28.19 122.49 C 31.03 118.97 32.53 114.62 34.63 110.65 C 44.29 93.00 56.60 76.91 70.41 62.41 C 74.39 59.83 77.30 55.96 80.70 52.69 C 107.43 29.65 140.21 11.92 175.34 6.88 C 177.45 4.82 180.61 6.12 183.22 6.04 C 183.62 5.71 184.43 5.06 184.83 4.73 C 187.99 4.82 191.15 4.87 194.30 5.03 M 192.18 28.32 C 189.36 28.24 186.54 28.17 183.73 27.98 C 183.34 28.30 182.56 28.95 182.17 29.27 C 178.40 28.95 174.51 29.76 171.13 31.14 C 143.04 36.13 117.30 51.34 95.74 69.74 C 90.83 74.83 85.84 79.84 80.74 84.74 C 71.02 95.90 62.30 108.06 54.98 120.98 C 53.15 124.50 51.85 128.35 49.31 131.46 C 42.89 146.59 35.95 161.87 33.07 178.19 C 32.80 178.59 32.25 179.40 31.98 179.80 C 32.04 180.63 32.15 182.30 32.20 183.13 C 29.53 193.67 27.73 204.90 28.32 216.18 C 27.98 216.55 27.31 217.30 26.98 217.67 C 27.17 225.53 27.18 233.40 26.95 241.26 C 27.29 241.65 27.97 242.43 28.30 242.82 C 28.23 246.31 28.20 249.81 27.98 253.31 C 28.32 253.69 28.99 254.45 29.32 254.83 C 29.22 256.97 29.13 259.11 28.99 261.25 C 29.32 261.64 29.97 262.44 30.30 262.83 C 30.37 265.17 29.21 267.99 31.15 269.87 C 33.77 290.29 41.72 309.96 50.30 328.69 C 57.89 342.59 65.96 356.43 76.55 368.29 C 79.01 372.76 84.07 375.07 86.38 379.62 C 91.80 382.67 94.89 388.58 100.04 392.01 C 121.93 409.94 147.91 423.53 175.93 428.41 C 180.68 429.06 185.24 430.52 190.18 429.66 C 190.55 430.00 191.30 430.68 191.68 431.02 C 200.72 430.60 209.78 430.82 218.83 430.90 C 221.88 428.58 225.83 430.83 229.06 429.39 C 243.34 427.13 257.91 423.46 271.17 417.08 C 326.69 392.63 365.46 338.38 377.94 279.81 C 378.21 279.41 378.75 278.61 379.02 278.21 C 378.96 277.37 378.84 275.67 378.78 274.83 C 379.09 274.44 379.70 273.65 380.00 273.26 C 378.99 269.59 381.82 266.51 380.77 262.83 C 381.08 262.44 381.71 261.66 382.02 261.27 C 381.89 258.79 381.81 256.31 381.70 253.83 C 382.03 253.45 382.69 252.69 383.02 252.32 C 382.83 248.49 382.81 244.66 382.70 240.83 C 383.04 240.46 383.70 239.70 384.03 239.32 C 383.94 232.45 383.93 225.58 384.04 218.72 C 383.71 218.33 383.04 217.56 382.71 217.18 C 382.81 213.35 382.83 209.53 383.02 205.71 C 382.69 205.32 382.04 204.55 381.71 204.17 C 381.81 201.70 381.90 199.22 382.03 196.75 C 381.71 196.36 381.07 195.56 380.75 195.17 C 380.83 193.68 380.93 192.20 381.02 190.71 C 380.71 190.32 380.09 189.54 379.79 189.15 C 380.49 185.87 378.00 183.08 378.99 179.76 C 378.73 179.37 378.22 178.58 377.96 178.18 C 369.82 139.95 350.31 103.94 322.74 76.26 C 299.53 53.79 270.07 36.94 238.26 30.38 C 231.72 29.41 225.54 27.35 218.82 28.33 C 218.44 28.00 217.70 27.32 217.32 26.99 C 209.45 27.26 201.56 27.26 193.69 26.99 C 193.31 27.32 192.56 27.99 192.18 28.32 Z" />
<path fill="#000000" opacity="1.00" d=" M 150.72 72.51 C 161.86 64.46 175.11 59.21 187.30 53.26 C 187.07 169.87 187.28 286.49 187.20 403.10 C 174.20 399.81 162.67 391.67 150.76 385.51 C 150.82 338.37 150.63 291.22 150.85 244.08 C 131.61 244.23 112.36 244.23 93.12 244.08 C 95.04 270.17 105.81 295.89 122.05 316.65 C 122.04 317.13 122.04 318.10 122.04 318.58 C 114.43 325.67 105.76 331.53 98.57 339.10 C 98.04 339.10 96.96 339.10 96.43 339.10 C 78.14 316.10 63.47 288.96 58.87 259.66 C 56.87 257.81 58.37 255.00 57.76 252.71 C 56.02 250.00 57.05 246.67 57.04 243.68 C 56.70 243.30 56.02 242.56 55.69 242.18 C 56.04 228.94 55.07 215.59 57.86 202.88 C 61.30 177.95 71.58 153.74 85.80 132.80 C 89.00 126.93 94.10 122.36 97.28 116.54 C 101.81 122.15 107.87 126.00 112.81 131.15 C 117.08 132.89 118.81 138.59 123.51 139.05 C 109.00 156.46 98.69 177.65 94.96 200.04 C 93.79 201.90 94.12 204.10 94.27 206.17 C 93.94 206.56 93.29 207.33 92.96 207.72 C 93.07 209.48 93.15 211.24 93.23 213.00 C 112.40 212.99 131.58 213.02 150.76 212.99 C 150.73 166.16 150.80 119.34 150.72 72.51 Z" />
<path fill="#000000" opacity="1.00" d=" M 221.73 53.11 C 224.69 56.95 229.74 57.79 233.59 60.41 C 242.20 65.37 250.18 71.32 258.06 77.34 C 257.94 119.44 258.13 161.54 257.97 203.64 C 268.29 211.87 277.86 220.90 288.01 229.34 C 296.97 221.33 307.30 214.90 315.92 206.51 C 315.96 204.95 316.13 203.29 314.85 202.13 C 313.39 188.48 307.23 175.76 301.70 163.30 C 296.64 155.57 293.16 146.59 286.45 140.07 C 294.18 132.38 302.98 125.90 310.45 117.88 C 310.98 117.89 312.04 117.92 312.58 117.93 C 330.75 141.84 345.95 169.52 351.14 199.35 C 353.84 201.96 350.40 206.32 353.22 208.90 C 353.27 212.14 353.12 215.39 353.18 218.64 C 337.27 231.66 321.64 244.96 306.10 258.41 C 306.23 287.76 306.14 317.12 306.15 346.47 C 303.12 349.06 300.48 352.00 298.38 355.38 C 292.65 358.49 289.33 364.46 283.84 367.87 C 279.33 371.74 274.50 375.22 269.64 378.62 C 269.90 338.20 269.55 297.78 269.82 257.37 C 257.28 245.83 244.25 234.89 231.62 223.46 C 227.72 221.59 225.97 216.91 221.79 215.57 C 221.76 161.42 221.88 107.26 221.73 53.11 Z" />
</g>
</svg>
