<?xml version="1.0" encoding="UTF-8" ?>
<!DOCTYPE svg PUBLIC "-//W3C//DTD SVG 1.1//EN" "http://www.w3.org/Graphics/SVG/1.1/DTD/svg11.dtd">
<svg width="345pt" height="347pt" viewBox="0 0 345 347" version="1.1" xmlns="http://www.w3.org/2000/svg">
<g id="#3a783aff">
<path fill="#3a783a" opacity="1.00" d=" M 129.48 0.00 L 129.72 0.00 L 130.73 0.45 C 139.61 10.82 150.97 18.75 160.70 28.31 C 163.02 30.13 165.66 34.02 168.97 31.99 C 178.78 27.02 188.74 22.30 198.39 17.01 C 214.99 43.94 231.53 70.91 248.16 97.82 C 250.66 101.95 251.42 106.78 252.64 111.37 C 256.75 127.52 260.83 143.68 265.01 159.81 C 266.50 165.64 268.02 171.46 269.59 177.27 C 273.80 174.01 277.68 170.29 280.78 165.95 C 284.90 153.71 287.87 141.08 292.32 128.95 C 301.33 128.97 310.24 127.36 319.14 126.10 C 318.54 117.45 317.22 108.88 316.09 100.30 C 320.93 107.31 325.86 114.27 330.70 121.29 C 332.79 124.14 331.65 127.85 331.55 131.09 C 330.00 145.26 329.52 159.58 327.58 173.68 C 312.59 189.26 295.75 203.11 281.02 219.02 C 268.90 218.56 256.79 217.79 244.66 217.42 C 261.55 236.21 279.25 254.27 295.91 273.28 C 293.60 275.40 291.29 277.51 288.97 279.60 C 273.03 261.86 255.96 245.18 239.07 228.35 C 238.23 234.10 235.67 240.18 238.04 245.88 C 241.64 255.17 245.15 264.49 248.65 273.81 C 243.95 277.75 238.15 280.45 234.09 285.06 C 229.84 295.86 227.65 307.48 223.11 318.15 C 215.33 323.51 206.83 327.90 198.64 332.63 C 186.45 337.20 173.76 340.39 161.43 344.57 C 158.52 345.33 155.38 347.09 152.43 345.57 C 145.59 342.60 138.84 339.40 132.07 336.29 C 138.30 326.38 143.98 316.10 150.61 306.46 C 158.07 307.04 165.57 307.20 173.04 306.83 C 175.23 307.02 176.32 304.91 177.35 303.36 C 180.22 298.60 182.71 293.62 185.28 288.69 C 188.51 284.35 191.31 279.73 194.13 275.12 C 184.85 275.04 175.55 273.88 166.30 274.40 C 157.99 277.77 150.18 282.33 142.09 286.21 C 132.38 291.82 120.55 284.72 110.61 289.54 C 105.19 291.99 99.75 294.40 94.27 296.70 C 75.53 286.45 56.79 276.19 38.04 265.94 C 33.43 263.36 28.30 261.30 24.83 257.14 C 16.80 248.09 8.54 239.25 0.58 230.14 C 1.45 229.91 2.31 229.68 3.17 229.44 C 7.42 231.30 12.12 231.16 16.65 231.45 C 28.45 232.31 40.24 233.24 52.03 234.12 C 57.28 234.89 61.06 230.72 64.89 227.90 C 80.49 215.65 97.11 204.64 112.08 191.64 C 113.36 191.05 114.72 191.59 115.92 192.08 C 131.51 199.17 146.86 206.83 162.59 213.58 C 166.72 214.09 170.89 213.97 175.04 213.91 C 175.20 209.73 175.23 205.56 175.09 201.39 C 158.87 196.74 143.23 188.89 126.10 188.49 C 102.68 186.25 79.16 184.66 55.81 182.03 C 49.66 173.26 45.04 163.40 39.43 154.24 C 47.72 153.27 56.06 153.01 64.38 152.55 C 58.80 145.50 51.42 140.16 44.79 134.17 C 39.84 129.47 32.47 126.67 30.19 119.73 C 23.81 104.07 16.95 88.60 10.63 72.91 C 21.10 77.64 29.93 85.24 40.17 90.39 C 39.74 79.86 37.74 69.49 36.80 59.00 C 54.11 59.57 71.40 60.93 88.72 61.18 C 93.09 73.61 97.85 85.91 102.77 98.13 C 104.09 84.29 103.96 70.38 104.31 56.50 C 120.94 74.26 137.39 92.20 153.96 110.03 C 168.93 125.90 184.46 141.25 199.39 157.15 C 202.37 160.90 205.16 164.81 208.47 168.30 C 209.51 162.12 210.69 155.95 210.98 149.68 C 207.96 143.34 203.97 137.51 200.64 131.33 C 198.56 127.90 197.04 123.61 193.09 121.88 C 180.04 115.28 167.09 108.47 154.04 101.87 C 152.45 100.97 150.37 100.12 150.19 98.02 C 143.26 65.36 136.43 32.66 129.48 0.00 Z" />
</g>
<g id="#64a34eff">
<path fill="#64a34e" opacity="1.00" d=" M 130.73 0.45 C 153.20 6.26 175.88 11.32 198.39 17.01 C 188.74 22.30 178.78 27.02 168.97 31.99 C 165.66 34.02 163.02 30.13 160.70 28.31 C 150.97 18.75 139.61 10.82 130.73 0.45 Z" />
<path fill="#64a34e" opacity="1.00" d=" M 88.72 61.18 C 93.95 59.76 99.09 58.00 104.31 56.50 C 103.96 70.38 104.09 84.29 102.77 98.13 C 97.85 85.91 93.09 73.61 88.72 61.18 Z" />
<path fill="#64a34e" opacity="1.00" d=" M 10.10 71.53 C 19.05 67.47 27.69 62.71 36.80 59.00 C 37.74 69.49 39.74 79.86 40.17 90.39 C 29.93 85.24 21.10 77.64 10.63 72.91 C 10.50 72.57 10.23 71.88 10.10 71.53 Z" />
<path fill="#64a34e" opacity="1.00" d=" M 292.32 128.95 C 300.09 119.28 307.96 109.67 316.09 100.30 C 317.22 108.88 318.54 117.45 319.14 126.10 C 310.24 127.36 301.33 128.97 292.32 128.95 Z" />
<path fill="#64a34e" opacity="1.00" d=" M 39.43 154.24 C 40.54 147.39 42.92 140.83 44.79 134.17 C 51.42 140.16 58.80 145.50 64.38 152.55 C 56.06 153.01 47.72 153.27 39.43 154.24 Z" />
<path fill="#64a34e" opacity="1.00" d=" M 199.39 157.15 C 203.19 154.57 207.05 152.07 210.98 149.68 C 210.69 155.95 209.51 162.12 208.47 168.30 C 205.16 164.81 202.37 160.90 199.39 157.15 Z" />
<path fill="#64a34e" opacity="1.00" d=" M 265.01 159.81 C 270.29 161.80 275.53 163.88 280.78 165.95 C 277.68 170.29 273.80 174.01 269.59 177.27 C 268.02 171.46 266.50 165.64 265.01 159.81 Z" />
<path fill="#64a34e" opacity="1.00" d=" M 28.41 222.42 C 56.34 212.26 84.11 201.67 112.08 191.64 C 97.11 204.64 80.49 215.65 64.89 227.90 C 61.06 230.72 57.28 234.89 52.03 234.12 C 40.24 233.24 28.45 232.31 16.65 231.45 C 12.12 231.16 7.42 231.30 3.17 229.44 C 11.54 226.94 20.11 225.17 28.41 222.42 Z" />
<path fill="#64a34e" opacity="1.00" d=" M 162.59 213.58 C 166.68 209.44 170.80 205.32 175.09 201.39 C 175.23 205.56 175.20 209.73 175.04 213.91 C 170.89 213.97 166.72 214.09 162.59 213.58 Z" />
<path fill="#64a34e" opacity="1.00" d=" M 150.61 306.46 C 162.10 300.41 173.56 294.28 185.28 288.69 C 182.71 293.62 180.22 298.60 177.35 303.36 C 176.32 304.91 175.23 307.02 173.04 306.83 C 165.57 307.20 158.07 307.04 150.61 306.46 Z" />
</g>
</svg>
