<?xml version="1.0" encoding="UTF-8" standalone="no"?>
<!-- Created with Inkscape (http://www.inkscape.org/) -->

<svg
   width="41.155285mm"
   height="45.950054mm"
   viewBox="0 0 41.155285 45.950054"
   version="1.1"
   id="svg5"
   xml:space="preserve"
   inkscape:version="1.4.1-rc (d9e8dc1fe0, 2025-03-10)"
   sodipodi:docname="hypermea-api.svg"
   inkscape:export-filename="hypermea-api.png"
   inkscape:export-xdpi="82.919998"
   inkscape:export-ydpi="82.919998"
   xmlns:inkscape="http://www.inkscape.org/namespaces/inkscape"
   xmlns:sodipodi="http://sodipodi.sourceforge.net/DTD/sodipodi-0.dtd"
   xmlns="http://www.w3.org/2000/svg"
   xmlns:svg="http://www.w3.org/2000/svg"><sodipodi:namedview
     id="namedview7"
     pagecolor="#ffffff"
     bordercolor="#000000"
     borderopacity="0.25"
     inkscape:showpageshadow="2"
     inkscape:pageopacity="0.0"
     inkscape:pagecheckerboard="0"
     inkscape:deskcolor="#d1d1d1"
     inkscape:document-units="mm"
     showgrid="false"
     inkscape:zoom="2.9540685"
     inkscape:cx="60.086623"
     inkscape:cy="80.905368"
     inkscape:window-width="1920"
     inkscape:window-height="972"
     inkscape:window-x="1920"
     inkscape:window-y="0"
     inkscape:window-maximized="1"
     inkscape:current-layer="layer1" /><defs
     id="defs2" /><g
     inkscape:label="Layer 1"
     inkscape:groupmode="layer"
     id="layer1"
     transform="translate(-55.720913,-52.798116)"><g
       id="#ffffffff-8"
       transform="matrix(0.101973,0,0,0.101973,55.345652,52.421836)" /><ellipse
       style="fill:#ffffff;stroke:#ffffff;stroke-width:1.27555;stroke-opacity:1"
       id="path449"
       cx="76.372253"
       cy="75.56057"
       rx="18.877316"
       ry="20.489498" /><path
       fill="#000000"
       opacity="1"
       d="m 75.159006,52.93476 c 0.03875,-0.03365 0.116249,-0.101973 0.153979,-0.136644 0.658746,0.0092 1.317491,0.0102 1.976237,0 0.03773,0.03365 0.11421,0.101973 0.15194,0.136644 0.718909,-0.08668 1.401109,0.06526 2.090446,0.187631 3.591489,0.616936 6.9515,2.402483 9.648685,4.827401 0.501708,0.517003 1.012592,1.024829 1.527556,1.528576 2.861362,3.184616 4.79477,7.198274 5.632988,11.386305 0.05405,0.531279 0.260032,1.035026 0.199868,1.574463 0.03365,0.03977 0.09993,0.117269 0.133584,0.156019 -0.01122,0.254932 -0.02039,0.509865 -0.03263,0.763777 0.03467,0.03875 0.101973,0.11523 0.135624,0.15398 -0.0082,0.699534 -0.05201,1.401109 -0.01835,2.099624 0.02957,0.03569 0.0877,0.106052 0.117269,0.140722 -0.297761,0.697496 -0.03977,1.530615 -0.09993,2.281136 -0.03365,0.03875 -0.100953,0.117269 -0.134604,0.156019 0.01224,0.253913 0.02141,0.507826 0.03263,0.761738 -0.03365,0.03977 -0.09993,0.117269 -0.133584,0.157039 -0.201907,2.588075 -1.100289,5.141478 -2.161828,7.526627 -0.11217,0.140723 -0.211084,0.291643 -0.285524,0.455819 -0.759699,1.632588 -1.801863,3.121394 -2.955178,4.492931 -0.294702,0.444602 -0.795389,0.71483 -1.035026,1.203281 -0.539437,0.285524 -0.863711,0.83006 -1.339925,1.193084 -2.64416,2.225051 -5.841014,3.913724 -9.275464,4.460299 -0.220262,0.131545 -0.478254,0.08362 -0.71993,0.07138 -0.03875,0.03263 -0.116249,0.09891 -0.154999,0.131545 -0.288583,-0.01224 -0.576147,-0.01937 -0.864731,-0.03161 -0.03773,0.03467 -0.115229,0.101973 -0.152959,0.135624 -0.862692,-0.01937 -1.725383,-0.01835 -2.588075,0 -0.03875,-0.03365 -0.116249,-0.101973 -0.154999,-0.135624 -0.287564,0.01224 -0.575128,0.01938 -0.862691,0.03059 -0.03875,-0.03161 -0.11625,-0.09687 -0.156019,-0.129506 C 71.193285,98.306625 68.652118,97.201237 66.3771,95.847036 65.293127,95.11283 64.180602,94.390862 63.274062,93.441493 62.8264,93.152909 62.429725,92.77357 62.131964,92.332027 59.006492,89.025042 56.998643,84.711584 56.151248,80.2727 c -0.02753,-0.669963 -0.282466,-1.297097 -0.19069,-1.979296 -0.03365,-0.03875 -0.101973,-0.117269 -0.135624,-0.156019 0.01224,-0.560851 0.02549,-1.122723 0.03467,-1.683574 -0.03467,-0.03773 -0.104013,-0.11319 -0.138683,-0.15092 0.0061,-0.352827 0.0051,-0.705653 0,-1.05848 0.03467,-0.03773 0.104012,-0.11421 0.138683,-0.152959 -0.0102,-0.560852 -0.02243,-1.120684 -0.03467,-1.681535 0.03365,-0.03875 0.101973,-0.116249 0.135624,-0.153979 0.107072,-2.861363 1.104368,-5.701311 2.259722,-8.343431 0.289603,-0.358945 0.442563,-0.802528 0.656706,-1.207361 0.985059,-1.799823 2.240347,-3.440569 3.648594,-4.919177 0.405852,-0.26309 0.702594,-0.657726 1.049302,-0.991178 2.725738,-2.349458 6.068413,-4.157439 9.650725,-4.671383 0.215163,-0.210064 0.537398,-0.0775 0.803547,-0.08566 0.04079,-0.03365 0.123387,-0.09993 0.164177,-0.133585 0.322234,0.0092 0.644469,0.01428 0.965684,0.03059 m -0.216183,2.374951 c -0.287564,-0.0082 -0.575128,-0.0153 -0.861672,-0.03467 -0.03977,0.03263 -0.119308,0.09891 -0.159078,0.131545 -0.384438,-0.03263 -0.781113,0.04997 -1.125782,0.190689 -2.864421,0.508845 -5.489206,2.059855 -7.687744,3.936158 -0.500687,0.519043 -1.009533,1.029927 -1.529595,1.529595 -0.991178,1.138019 -1.880382,2.37801 -2.626824,3.695502 -0.186611,0.358944 -0.319176,0.751541 -0.578187,1.068677 -0.654667,1.542851 -1.36236,3.100999 -1.656042,4.765198 -0.02753,0.04079 -0.08362,0.123387 -0.11115,0.164176 0.0061,0.08464 0.01734,0.254933 0.02243,0.33957 -0.272268,1.074796 -0.45582,2.219953 -0.395656,3.370208 -0.03467,0.03773 -0.102992,0.11421 -0.136643,0.15194 0.01937,0.801508 0.02039,1.604035 -0.0031,2.405543 0.03467,0.03977 0.104013,0.119308 0.137664,0.159078 -0.0071,0.355886 -0.0102,0.712791 -0.03263,1.069697 0.03467,0.03875 0.102992,0.116249 0.136643,0.154999 -0.0102,0.218222 -0.01938,0.436444 -0.03365,0.654666 0.03365,0.03977 0.09993,0.121348 0.133585,0.161118 0.0071,0.238616 -0.111151,0.52618 0.08668,0.71789 0.267169,2.082288 1.077855,4.088097 1.952783,5.998051 0.773975,1.417425 1.596897,2.828731 2.676791,4.038131 0.250854,0.455819 0.766837,0.691377 1.002395,1.155354 0.552693,0.311018 0.86779,0.913678 1.392951,1.263446 2.232189,1.828376 4.881447,3.214189 7.738731,3.711817 0.484372,0.06628 0.949369,0.215163 1.453115,0.127466 0.03773,0.03467 0.11421,0.104013 0.15296,0.138683 0.921836,-0.04283 1.845711,-0.02039 2.768567,-0.01224 0.311017,-0.236578 0.713811,-0.0071 1.043183,-0.15398 1.456175,-0.230459 2.941921,-0.604699 4.294083,-1.255287 5.661541,-2.49324 9.615035,-8.025275 10.887658,-13.997834 0.02753,-0.04079 0.0826,-0.122367 0.11013,-0.163157 -0.0061,-0.08566 -0.01835,-0.259011 -0.02447,-0.344668 0.03161,-0.03977 0.09382,-0.120329 0.124407,-0.160098 -0.102993,-0.374241 0.185591,-0.688318 0.07852,-1.063578 0.03161,-0.03977 0.09586,-0.119309 0.127466,-0.159078 -0.01326,-0.252893 -0.02141,-0.505786 -0.03263,-0.758679 0.03365,-0.03875 0.100953,-0.11625 0.134604,-0.15398 -0.01937,-0.390556 -0.02141,-0.781113 -0.03263,-1.171669 0.03467,-0.03773 0.101973,-0.11523 0.135624,-0.15398 -0.0092,-0.700554 -0.0102,-1.401109 10e-4,-2.100643 -0.03365,-0.03977 -0.101973,-0.118289 -0.135624,-0.157039 0.0102,-0.390556 0.01224,-0.780093 0.03161,-1.16963 -0.03365,-0.03977 -0.09993,-0.118289 -0.133584,-0.157039 0.0102,-0.251873 0.01937,-0.504766 0.03263,-0.756639 -0.03263,-0.03977 -0.09789,-0.121348 -0.130525,-0.161118 0.0082,-0.151939 0.01835,-0.302859 0.02753,-0.454799 -0.03161,-0.03977 -0.09483,-0.119309 -0.125426,-0.159078 0.07138,-0.334471 -0.182532,-0.618976 -0.08158,-0.957527 -0.02651,-0.03977 -0.07852,-0.120328 -0.105032,-0.161117 -0.83006,-3.898428 -2.819553,-7.570475 -5.630949,-10.393088 -2.366793,-2.291333 -5.370918,-4.009578 -8.614679,-4.678521 -0.666903,-0.09891 -1.297097,-0.308978 -1.982355,-0.209045 -0.03875,-0.03365 -0.11421,-0.102993 -0.15296,-0.136644 -0.802527,0.02753 -1.607094,0.02753 -2.409622,0 -0.03875,0.03365 -0.115229,0.101973 -0.153979,0.135624 z"
       id="path148"
       style="fill:#308c88;fill-opacity:1;stroke-width:0.102;stroke-dasharray:none" /><path
       fill="#000000"
       opacity="1"
       d="m 70.715023,59.815898 c 1.135979,-0.820882 2.487121,-1.356241 3.730172,-1.96298 -0.02345,11.891072 -0.002,23.783163 -0.0102,35.674234 -1.325649,-0.335491 -2.501398,-1.165551 -3.715897,-1.793705 0.0061,-4.807007 -0.01326,-9.615034 0.0092,-14.422041 -1.96196,0.0153 -3.924941,0.0153 -5.886901,0 0.195788,2.660475 1.294037,5.283221 2.950079,7.40018 -0.001,0.04895 -0.001,0.147861 -0.001,0.196808 -0.776015,0.722989 -1.660121,1.320551 -2.393306,2.092486 -0.05405,0 -0.164177,0 -0.218223,0 -1.865086,-2.345379 -3.36103,-5.112926 -3.830105,-8.100735 -0.203946,-0.18865 -0.05099,-0.475194 -0.113191,-0.708712 -0.177433,-0.276347 -0.0724,-0.615917 -0.07342,-0.920816 -0.03467,-0.03875 -0.104013,-0.11421 -0.137664,-0.15296 0.03569,-1.350122 -0.06322,-2.711462 0.221282,-4.007539 0.350787,-2.542187 1.399069,-5.010953 2.849125,-7.146268 0.326314,-0.598581 0.846376,-1.064598 1.17065,-1.658081 0.461938,0.572069 1.079895,0.964665 1.583641,1.489826 0.435425,0.177433 0.611838,0.758679 1.091111,0.805587 -1.479628,1.77535 -2.53097,3.936157 -2.911329,6.219333 -0.119308,0.18967 -0.08566,0.41401 -0.07036,0.625094 -0.03365,0.03977 -0.09993,0.118289 -0.133585,0.158059 0.01122,0.179472 0.01937,0.358945 0.02753,0.538417 1.954822,-10e-4 3.910664,0.002 5.866506,-10e-4 -0.0031,-4.775395 0.0041,-9.549771 -0.0041,-14.325167 z"
       id="path150"
       style="fill:#308c88;fill-opacity:1;stroke-width:0.102;stroke-dasharray:none" /><path
       fill="#000000"
       opacity="1"
       d="m 77.956125,57.837622 c 0.30184,0.391576 0.816804,0.477234 1.2094,0.744403 0.877988,0.505786 1.691732,1.112525 2.495279,1.726403 -0.01224,4.293063 0.0071,8.586126 -0.0092,12.87919 1.052361,0.839238 2.028243,1.760054 3.063269,2.620706 0.913678,-0.816804 1.967059,-1.47249 2.846066,-2.328044 0.0041,-0.159078 0.02141,-0.328353 -0.109111,-0.446642 -0.148881,-1.391931 -0.777034,-2.689028 -1.340945,-3.959611 -0.515983,-0.788251 -0.870849,-1.703969 -1.555088,-2.368833 0.788251,-0.784172 1.685614,-1.444957 2.447352,-2.262781 0.05405,0.001 0.162137,0.0041 0.217202,0.0051 1.85285,2.438174 3.402839,5.260787 3.932079,8.302642 0.275327,0.266149 -0.07546,0.710751 0.212104,0.973842 0.0051,0.330392 -0.0102,0.661804 -0.0041,0.993217 -1.62239,1.327688 -3.216228,2.683929 -4.800889,4.055466 0.01326,2.992907 0.0041,5.986835 0.0051,8.979742 -0.308978,0.26411 -0.578187,0.563911 -0.79233,0.90858 -0.584306,0.317136 -0.922856,0.925915 -1.482688,1.273643 -0.459898,0.394635 -0.952427,0.749501 -1.448016,1.096209 0.02651,-4.121748 -0.0092,-8.243497 0.01835,-12.364226 -1.278742,-1.176768 -2.60745,-2.292353 -3.895369,-3.457904 -0.397694,-0.19069 -0.576147,-0.667924 -1.002394,-0.804567 -0.0031,-5.521838 0.0092,-11.044696 -0.0061,-16.566534 z"
       id="path152"
       style="fill:#308c88;fill-opacity:1;stroke-width:0.102;stroke-dasharray:none" /></g></svg>
