<?xml version="1.0" encoding="UTF-8" standalone="no"?>
<!-- Created with Inkscape (http://www.inkscape.org/) -->

<svg
   width="41.155285mm"
   height="45.950054mm"
   viewBox="0 0 41.155285 45.950054"
   version="1.1"
   id="svg5"
   xml:space="preserve"
   inkscape:version="1.4.1-rc (d9e8dc1fe0, 2025-03-10)"
   sodipodi:docname="hypermea-service-ringless.svg"
   inkscape:export-filename="../74a203fa/hypermea-service-ringless.png"
   inkscape:export-xdpi="82.916115"
   inkscape:export-ydpi="82.916115"
   xmlns:inkscape="http://www.inkscape.org/namespaces/inkscape"
   xmlns:sodipodi="http://sodipodi.sourceforge.net/DTD/sodipodi-0.dtd"
   xmlns="http://www.w3.org/2000/svg"
   xmlns:svg="http://www.w3.org/2000/svg"><sodipodi:namedview
     id="namedview7"
     pagecolor="#ffffff"
     bordercolor="#000000"
     borderopacity="0.25"
     inkscape:showpageshadow="2"
     inkscape:pageopacity="0.0"
     inkscape:pagecheckerboard="0"
     inkscape:deskcolor="#d1d1d1"
     inkscape:document-units="mm"
     showgrid="false"
     inkscape:zoom="2.9540685"
     inkscape:cx="-0.84629046"
     inkscape:cy="80.905368"
     inkscape:window-width="2560"
     inkscape:window-height="1332"
     inkscape:window-x="3840"
     inkscape:window-y="0"
     inkscape:window-maximized="1"
     inkscape:current-layer="layer1" /><defs
     id="defs2" /><g
     inkscape:label="Layer 1"
     inkscape:groupmode="layer"
     id="layer1"
     transform="translate(-55.720913,-52.798116)"><g
       id="#ffffffff-8"
       transform="matrix(0.101973,0,0,0.101973,55.345652,52.421836)" /><ellipse
       style="fill:#ffffff;stroke:#ffffff;stroke-width:1.27555;stroke-opacity:1"
       id="path449"
       cx="76.372253"
       cy="75.56057"
       rx="18.877316"
       ry="20.489498" /><path
       fill="#000000"
       opacity="1"
       d="m 70.715023,59.815898 c 1.135979,-0.820882 2.487121,-1.356241 3.730172,-1.96298 -0.02345,11.891072 -0.002,23.783163 -0.0102,35.674234 -1.325649,-0.335491 -2.501398,-1.165551 -3.715897,-1.793705 0.0061,-4.807007 -0.01326,-9.615034 0.0092,-14.422041 -1.96196,0.0153 -3.924941,0.0153 -5.886901,0 0.195788,2.660475 1.294037,5.283221 2.950079,7.40018 -0.001,0.04895 -0.001,0.147861 -0.001,0.196808 -0.776015,0.722989 -1.660121,1.320551 -2.393306,2.092486 -0.05405,0 -0.164177,0 -0.218223,0 -1.865086,-2.345379 -3.36103,-5.112926 -3.830105,-8.100735 -0.203946,-0.18865 -0.05099,-0.475194 -0.113191,-0.708712 -0.177433,-0.276347 -0.0724,-0.615917 -0.07342,-0.920816 -0.03467,-0.03875 -0.104013,-0.11421 -0.137664,-0.15296 0.03569,-1.350122 -0.06322,-2.711462 0.221282,-4.007539 0.350787,-2.542187 1.399069,-5.010953 2.849125,-7.146268 0.326314,-0.598581 0.846376,-1.064598 1.17065,-1.658081 0.461938,0.572069 1.079895,0.964665 1.583641,1.489826 0.435425,0.177433 0.611838,0.758679 1.091111,0.805587 -1.479628,1.77535 -2.53097,3.936157 -2.911329,6.219333 -0.119308,0.18967 -0.08566,0.41401 -0.07036,0.625094 -0.03365,0.03977 -0.09993,0.118289 -0.133585,0.158059 0.01122,0.179472 0.01937,0.358945 0.02753,0.538417 1.954822,-10e-4 3.910664,0.002 5.866506,-10e-4 -0.0031,-4.775395 0.0041,-9.549771 -0.0041,-14.325167 z"
       id="path150"
       style="fill:#308c88;fill-opacity:1;stroke-width:0.101973" /><path
       fill="#000000"
       opacity="1"
       d="m 77.956125,57.837622 c 0.30184,0.391576 0.816804,0.477234 1.2094,0.744403 0.877988,0.505786 1.691732,1.112525 2.495279,1.726403 -0.01224,4.293063 0.0071,8.586126 -0.0092,12.87919 1.052361,0.839238 2.028243,1.760054 3.063269,2.620706 0.913678,-0.816804 1.967059,-1.47249 2.846066,-2.328044 0.0041,-0.159078 0.02141,-0.328353 -0.109111,-0.446642 -0.148881,-1.391931 -0.777034,-2.689028 -1.340945,-3.959611 -0.515983,-0.788251 -0.870849,-1.703969 -1.555088,-2.368833 0.788251,-0.784172 1.685614,-1.444957 2.447352,-2.262781 0.05405,0.001 0.162137,0.0041 0.217202,0.0051 1.85285,2.438174 3.402839,5.260787 3.932079,8.302642 0.275327,0.266149 -0.07546,0.710751 0.212104,0.973842 0.0051,0.330392 -0.0102,0.661804 -0.0041,0.993217 -1.62239,1.327688 -3.216228,2.683929 -4.800889,4.055466 0.01326,2.992907 0.0041,5.986835 0.0051,8.979742 -0.308978,0.26411 -0.578187,0.563911 -0.79233,0.90858 -0.584306,0.317136 -0.922856,0.925915 -1.482688,1.273643 -0.459898,0.394635 -0.952427,0.749501 -1.448016,1.096209 0.02651,-4.121748 -0.0092,-8.243497 0.01835,-12.364226 -1.278742,-1.176768 -2.60745,-2.292353 -3.895369,-3.457904 -0.397694,-0.19069 -0.576147,-0.667924 -1.002394,-0.804567 -0.0031,-5.521838 0.0092,-11.044696 -0.0061,-16.566534 z"
       id="path152"
       style="fill:#308c88;fill-opacity:1;stroke-width:0.101973" /></g></svg>
