<?xml version="1.0" encoding="UTF-8" standalone="no"?>
<!-- Created with Inkscape (http://www.inkscape.org/) -->

<svg
   width="127.37454mm"
   height="34.14912mm"
   viewBox="0 0 127.37454 34.14912"
   version="1.1"
   id="svg5"
   xml:space="preserve"
   inkscape:version="1.4.1-rc (d9e8dc1fe0, 2025-03-10)"
   sodipodi:docname="hypermea-letterhead.svg"
   inkscape:export-filename="hypermea-letterhead.png"
   inkscape:export-xdpi="111.5695"
   inkscape:export-ydpi="111.5695"
   xmlns:inkscape="http://www.inkscape.org/namespaces/inkscape"
   xmlns:sodipodi="http://sodipodi.sourceforge.net/DTD/sodipodi-0.dtd"
   xmlns="http://www.w3.org/2000/svg"
   xmlns:svg="http://www.w3.org/2000/svg"><sodipodi:namedview
     id="namedview7"
     pagecolor="#ffffff"
     bordercolor="#000000"
     borderopacity="0.25"
     inkscape:showpageshadow="2"
     inkscape:pageopacity="0.0"
     inkscape:pagecheckerboard="0"
     inkscape:deskcolor="#d1d1d1"
     inkscape:document-units="mm"
     showgrid="false"
     inkscape:zoom="1.9746621"
     inkscape:cx="208.39009"
     inkscape:cy="126.60394"
     inkscape:window-width="2560"
     inkscape:window-height="1332"
     inkscape:window-x="3840"
     inkscape:window-y="0"
     inkscape:window-maximized="1"
     inkscape:current-layer="layer1"
     inkscape:pageshadow="2"
     fit-margin-top="0"
     fit-margin-left="0"
     fit-margin-right="0"
     fit-margin-bottom="0" /><defs
     id="defs2"><rect
       x="185.74886"
       y="246.06937"
       width="384.90228"
       height="116.81114"
       id="rect1093" /></defs><g
     inkscape:label="Layer 1"
     inkscape:groupmode="layer"
     id="layer1"
     transform="translate(-11.224639,-17.834926)"><path
       d="m 48.550394,48.828319 q -0.560917,0 -0.894292,-0.291042 -0.333375,-0.291042 -0.333375,-0.777876 h 0.47625 q 0,0.291042 0.206375,0.470959 0.206375,0.174625 0.545042,0.174625 0.328084,0 0.523876,-0.174625 0.195791,-0.179917 0.195791,-0.470959 0,-0.227541 -0.121708,-0.396875 -0.116417,-0.174625 -0.322792,-0.238125 l -0.5715,-0.179917 q -0.386292,-0.121708 -0.608542,-0.402167 -0.216959,-0.280458 -0.216959,-0.650875 0,-0.470959 0.306917,-0.751417 0.312209,-0.280459 0.825501,-0.280459 0.513292,0 0.820208,0.280459 0.306917,0.280458 0.306917,0.751417 h -0.47625 q 0,-0.280458 -0.179917,-0.4445 -0.174625,-0.164042 -0.470958,-0.164042 -0.301626,0 -0.486834,0.164042 -0.179917,0.164042 -0.179917,0.433917 0,0.211666 0.121709,0.365125 0.121708,0.153458 0.333375,0.22225 l 0.592667,0.1905 q 0.365125,0.116417 0.576792,0.41275 0.216958,0.296334 0.216958,0.687917 0,0.486834 -0.322791,0.777876 -0.322792,0.291042 -0.862543,0.291042 z m 2.016118,-0.05292 v -0.433917 h 1.031876 v -2.042584 h -0.926042 v -0.433917 h 1.402292 v 2.476501 h 0.978959 v 0.433917 z m 1.217084,-3.434294 q -0.174625,0 -0.275166,-0.08996 -0.100542,-0.08996 -0.100542,-0.243417 0,-0.15875 0.100542,-0.248708 0.100541,-0.09525 0.275166,-0.09525 0.174626,0 0.275167,0.09525 0.100542,0.08996 0.100542,0.248708 0,0.153459 -0.100542,0.243417 -0.100541,0.08996 -0.275167,0.08996 z m 1.825618,3.434294 v -2.910418 h 0.418042 v 0.34925 h 0.03175 q 0.03704,-0.179917 0.164042,-0.291042 0.132292,-0.111125 0.322792,-0.111125 0.174625,0 0.301625,0.111125 0.127,0.105833 0.179917,0.291042 h 0.03175 q 0.03704,-0.179917 0.169333,-0.291042 0.132292,-0.111125 0.328084,-0.111125 0.264583,0 0.428625,0.211667 0.164042,0.206375 0.164042,0.53975 v 2.211918 h -0.439209 v -2.21721 q 0,-0.185208 -0.08467,-0.280458 -0.07937,-0.100542 -0.232834,-0.100542 -0.153458,0 -0.238125,0.100542 -0.08467,0.09525 -0.08467,0.275167 v 2.222501 h -0.381 v -2.21721 q 0,-0.185208 -0.08996,-0.280458 -0.08467,-0.100542 -0.238125,-0.100542 -0.148167,0 -0.232834,0.100542 -0.07937,0.09525 -0.07937,0.275167 v 2.222501 z m 3.349619,0.952501 v -3.862919 h 0.476251 v 0.555625 h 0.0053 q 0.03704,-0.28575 0.248709,-0.4445 0.216958,-0.164042 0.545042,-0.164042 0.439209,0 0.6985,0.291042 0.264584,0.28575 0.264584,0.788459 v 0.851958 q 0,0.502709 -0.264584,0.793751 -0.259291,0.291042 -0.6985,0.291042 -0.328084,0 -0.53975,-0.164042 -0.211667,-0.164042 -0.254001,-0.4445 H 57.4245 l 0.01058,0.661458 v 0.846668 z m 1.116543,-1.312334 q 0.301625,0 0.470958,-0.179917 0.174626,-0.179917 0.174626,-0.518584 v -0.79375 q 0,-0.338667 -0.174626,-0.518584 -0.169333,-0.179917 -0.470958,-0.179917 -0.291042,0 -0.465667,0.185209 -0.174625,0.185208 -0.174625,0.513292 v 0.79375 q 0,0.328084 0.174625,0.513292 0.174625,0.185209 0.465667,0.185209 z m 3.57716,0.359833 q -0.386292,0 -0.619125,-0.22225 -0.227542,-0.227542 -0.227542,-0.597959 V 45.3464 h -1.005417 v -0.433917 h 1.481667 v 3.04271 q 0,0.179917 0.100542,0.28575 0.100542,0.100542 0.269875,0.100542 h 0.899584 v 0.433917 z m 2.75166,0.05292 q -0.343958,0 -0.60325,-0.137584 -0.254,-0.137583 -0.396875,-0.386292 -0.137584,-0.254 -0.137584,-0.587375 v -0.79375 q 0,-0.338667 0.137584,-0.587376 0.142875,-0.248708 0.396875,-0.386292 0.259292,-0.137583 0.60325,-0.137583 0.343959,0 0.597959,0.137583 0.259292,0.137584 0.396875,0.386292 0.142875,0.248709 0.142875,0.587376 v 0.513292 h -1.809751 v 0.280458 q 0,0.343959 0.174625,0.529167 0.174625,0.179917 0.497417,0.179917 0.275167,0 0.4445,-0.09525 0.169334,-0.100542 0.206376,-0.296334 h 0.47625 q -0.04762,0.365126 -0.359834,0.582084 -0.306917,0.211667 -0.767292,0.211667 z m -0.672042,-1.751543 h 1.344084 v -0.153458 q 0,-0.343959 -0.174625,-0.529167 -0.169333,-0.185209 -0.497417,-0.185209 -0.322792,0 -0.497417,0.185209 -0.174625,0.185208 -0.174625,0.529167 z m 7.043197,1.751543 q -0.529167,0 -0.836084,-0.296334 -0.306917,-0.296333 -0.306917,-0.814917 v -1.746251 q 0,-0.518584 0.306917,-0.814917 0.306917,-0.296334 0.836084,-0.296334 0.518583,0 0.8255,0.301626 0.306917,0.296333 0.306917,0.809625 h -0.47625 q 0,-0.328083 -0.174625,-0.502709 -0.169334,-0.179916 -0.481542,-0.179916 -0.312209,0 -0.492125,0.174625 -0.174626,0.174625 -0.174626,0.502708 v 1.751543 q 0,0.328084 0.174626,0.508 0.179916,0.174626 0.492125,0.174626 0.312208,0 0.481542,-0.174626 0.174625,-0.179916 0.174625,-0.508 h 0.47625 q 0,0.513292 -0.306917,0.814917 -0.306917,0.296334 -0.8255,0.296334 z m 3.153827,-0.01058 q -0.529167,0 -0.836084,-0.296333 -0.301625,-0.301625 -0.301625,-0.814917 v -0.772584 q 0,-0.518584 0.301625,-0.814917 0.306917,-0.296334 0.836084,-0.296334 0.529167,0 0.830792,0.296334 0.306917,0.296333 0.306917,0.809625 v 0.777876 q 0,0.513292 -0.306917,0.814917 -0.301625,0.296333 -0.830792,0.296333 z m 0,-0.423333 q 0.312208,0 0.486833,-0.174625 0.174625,-0.174625 0.174625,-0.513292 v -0.772584 q 0,-0.338667 -0.174625,-0.513292 -0.174625,-0.174625 -0.486833,-0.174625 -0.306917,0 -0.486834,0.174625 -0.174625,0.174625 -0.174625,0.513292 v 0.772584 q 0,0.338667 0.174625,0.513292 0.179917,0.174625 0.486834,0.174625 z m 1.904992,0.381 v -2.910418 h 0.418042 v 0.34925 h 0.03175 q 0.03704,-0.179917 0.164042,-0.291042 0.132292,-0.111125 0.322792,-0.111125 0.174625,0 0.301625,0.111125 0.127,0.105833 0.179917,0.291042 h 0.03175 q 0.03704,-0.179917 0.169333,-0.291042 0.132292,-0.111125 0.328084,-0.111125 0.264583,0 0.428625,0.211667 0.164042,0.206375 0.164042,0.53975 v 2.211918 h -0.439209 v -2.21721 q 0,-0.185208 -0.08467,-0.280458 -0.07937,-0.100542 -0.232834,-0.100542 -0.153458,0 -0.238125,0.100542 -0.08467,0.09525 -0.08467,0.275167 v 2.222501 h -0.381 v -2.21721 q 0,-0.185208 -0.08996,-0.280458 -0.08467,-0.100542 -0.238125,-0.100542 -0.148167,0 -0.232834,0.100542 -0.07937,0.09525 -0.07937,0.275167 v 2.222501 z m 3.174994,0 v -2.910418 h 0.418042 v 0.34925 h 0.03175 q 0.03704,-0.179917 0.164042,-0.291042 0.132291,-0.111125 0.322791,-0.111125 0.174626,0 0.301626,0.111125 0.127,0.105833 0.179916,0.291042 h 0.03175 q 0.03704,-0.179917 0.169334,-0.291042 0.132292,-0.111125 0.328083,-0.111125 0.264584,0 0.428626,0.211667 0.164041,0.206375 0.164041,0.53975 v 2.211918 h -0.439208 v -2.21721 q 0,-0.185208 -0.08467,-0.280458 -0.07937,-0.100542 -0.232833,-0.100542 -0.153459,0 -0.238125,0.100542 -0.08467,0.09525 -0.08467,0.275167 v 2.222501 h -0.381 v -2.21721 q 0,-0.185208 -0.08996,-0.280458 -0.08467,-0.100542 -0.238125,-0.100542 -0.148167,0 -0.232833,0.100542 -0.07937,0.09525 -0.07937,0.275167 v 2.222501 z m 4.190994,0.05292 q -0.460375,0 -0.724959,-0.232834 -0.264583,-0.238125 -0.264583,-0.640292 0,-0.407458 0.264583,-0.640292 0.264584,-0.232833 0.714376,-0.232833 h 0.899584 v -0.291042 q 0,-0.264584 -0.164042,-0.41275 -0.15875,-0.148167 -0.4445,-0.148167 -0.254001,0 -0.428626,0.111125 -0.174625,0.111125 -0.216958,0.291042 h -0.47625 q 0.02646,-0.243417 0.174625,-0.428625 0.153458,-0.185209 0.396875,-0.285751 0.248708,-0.105833 0.550334,-0.105833 0.502708,0 0.79375,0.259292 0.291042,0.259292 0.291042,0.703792 v 2.000251 h -0.465667 v -0.555625 h -0.0053 q -0.03175,0.280458 -0.275167,0.4445 -0.238125,0.164042 -0.619125,0.164042 z m 0.116417,-0.375709 q 0.338667,0 0.555625,-0.169333 0.216959,-0.169334 0.216959,-0.433917 v -0.41275 h -0.889001 q -0.238125,0 -0.375709,0.132291 -0.137583,0.132292 -0.137583,0.359834 0,0.243417 0.164042,0.386292 0.169333,0.137583 0.465667,0.137583 z m 2.211911,0.322792 v -2.910418 h 0.476251 v 0.555625 h 0.0053 q 0.03704,-0.291042 0.238125,-0.449792 0.201084,-0.15875 0.534459,-0.15875 0.439209,0 0.6985,0.269875 0.259292,0.269875 0.259292,0.735542 v 1.957918 h -0.47625 v -1.905001 q 0,-0.312209 -0.169333,-0.47625 -0.164042,-0.169334 -0.449792,-0.169334 -0.296334,0 -0.470959,0.179917 -0.169333,0.179917 -0.169333,0.518584 v 1.852084 z m 4.106326,0.05292 q -0.433917,0 -0.703792,-0.291042 -0.264584,-0.291042 -0.264584,-0.788459 v -0.851959 q 0,-0.502708 0.264584,-0.79375 0.264583,-0.291042 0.703792,-0.291042 0.328083,0 0.53975,0.164042 0.211667,0.164041 0.248709,0.4445 h 0.01587 l -0.01058,-0.661459 v -0.846667 h 0.476251 v 3.862919 h -0.476251 v -0.555625 h -0.0053 q -0.03704,0.28575 -0.248709,0.449792 -0.211667,0.15875 -0.53975,0.15875 z m 0.15875,-0.41275 q 0.296333,0 0.465667,-0.185209 0.169333,-0.185208 0.169333,-0.513292 v -0.79375 q 0,-0.328084 -0.169333,-0.513292 -0.169334,-0.185209 -0.465667,-0.185209 -0.301625,0 -0.47625,0.179917 -0.174625,0.179917 -0.174625,0.518584 v 0.79375 q 0,0.338667 0.174625,0.518584 0.174625,0.179917 0.47625,0.179917 z m 3.09562,0.402166 q -0.449792,0 -0.735542,-0.206375 -0.28575,-0.206375 -0.28575,-0.566208 h 0.486834 q 0,0.164041 0.153458,0.259291 0.15875,0.08996 0.391584,0.08996 h 0.22225 q 0.280458,0 0.418042,-0.111125 0.137583,-0.116417 0.137583,-0.306917 0,-0.185209 -0.132292,-0.291042 -0.127,-0.111125 -0.370417,-0.148167 l -0.391583,-0.0635 q -0.433917,-0.07408 -0.640292,-0.275167 -0.206375,-0.201083 -0.206375,-0.555625 0,-0.396875 0.254,-0.608542 0.259292,-0.211667 0.740834,-0.211667 h 0.201083 q 0.4445,0 0.709084,0.201084 0.269875,0.195792 0.269875,0.523875 h -0.486834 q 0,-0.137583 -0.137583,-0.216958 -0.132292,-0.08467 -0.365125,-0.08467 h -0.201084 q -0.248708,0 -0.386292,0.105833 -0.132291,0.100542 -0.132291,0.291042 0,0.3175 0.449792,0.391584 l 0.391583,0.0635 q 0.470959,0.07408 0.682626,0.275167 0.216958,0.201083 0.216958,0.582083 0,0.402167 -0.259292,0.635001 -0.254,0.227541 -0.772584,0.227541 z m 2.550575,0.804334 0.423333,-1.645709 h 0.687918 l -0.687918,1.645709 z m 7.085533,-0.79375 q -0.56092,0 -0.89429,-0.291042 -0.33338,-0.291042 -0.33338,-0.777876 h 0.47625 q 0,0.291042 0.20638,0.470959 0.20637,0.174625 0.54504,0.174625 0.32808,0 0.52388,-0.174625 0.19579,-0.179917 0.19579,-0.470959 0,-0.227541 -0.12171,-0.396875 -0.11642,-0.174625 -0.32279,-0.238125 l -0.5715,-0.179917 q -0.3863,-0.121708 -0.60855,-0.402167 -0.21695,-0.280458 -0.21695,-0.650875 0,-0.470959 0.30691,-0.751417 0.31221,-0.280459 0.8255,-0.280459 0.5133,0 0.82021,0.280459 0.30692,0.280458 0.30692,0.751417 h -0.47625 q 0,-0.280458 -0.17992,-0.4445 -0.17462,-0.164042 -0.47096,-0.164042 -0.30162,0 -0.48683,0.164042 -0.17992,0.164042 -0.17992,0.433917 0,0.211666 0.12171,0.365125 0.12171,0.153458 0.33338,0.22225 l 0.59266,0.1905 q 0.36513,0.116417 0.5768,0.41275 0.21695,0.296334 0.21695,0.687917 0,0.486834 -0.32279,0.777876 -0.32279,0.291042 -0.86254,0.291042 z m 3.15382,0 q -0.34395,0 -0.60325,-0.137584 -0.254,-0.137583 -0.39687,-0.386292 -0.13758,-0.254 -0.13758,-0.587375 v -0.79375 q 0,-0.338667 0.13758,-0.587376 0.14287,-0.248708 0.39687,-0.386292 0.2593,-0.137583 0.60325,-0.137583 0.34396,0 0.59796,0.137583 0.2593,0.137584 0.39688,0.386292 0.14287,0.248709 0.14287,0.587376 v 0.513292 h -1.80975 v 0.280458 q 0,0.343959 0.17463,0.529167 0.17462,0.179917 0.49741,0.179917 0.27517,0 0.4445,-0.09525 0.16934,-0.100542 0.20638,-0.296334 h 0.47625 q -0.0476,0.365126 -0.35983,0.582084 -0.30692,0.211667 -0.7673,0.211667 z m -0.67204,-1.751543 h 1.34409 v -0.153458 q 0,-0.343959 -0.17463,-0.529167 -0.16933,-0.185209 -0.49742,-0.185209 -0.32279,0 -0.49741,0.185209 -0.17463,0.185208 -0.17463,0.529167 z m 2.83633,1.698626 v -2.910418 h 0.47625 v 0.555625 h 0.005 q 0.037,-0.291042 0.23813,-0.449792 0.20108,-0.15875 0.53446,-0.15875 0.45508,0 0.72496,0.291042 0.26987,0.28575 0.26987,0.777875 v 0.201084 h -0.47625 v -0.15875 q 0,-0.333376 -0.16933,-0.513292 -0.16934,-0.185209 -0.49213,-0.185209 -0.635,0 -0.635,0.698501 v 1.852084 z m 3.04799,0 v -0.433917 h 1.03188 v -2.042584 h -0.92604 v -0.433917 h 1.40229 v 2.476501 h 0.97896 v 0.433917 z m 1.21709,-3.434294 q -0.17463,0 -0.27517,-0.08996 -0.10054,-0.08996 -0.10054,-0.243417 0,-0.15875 0.10054,-0.248708 0.10054,-0.09525 0.27517,-0.09525 0.17462,0 0.27516,0.09525 0.10055,0.08996 0.10055,0.248708 0,0.153459 -0.10055,0.243417 -0.10054,0.08996 -0.27516,0.08996 z m 3.09561,3.476627 q -0.52916,0 -0.83608,-0.296333 -0.30163,-0.301625 -0.30163,-0.814917 v -0.772584 q 0,-0.518584 0.30163,-0.814917 0.30692,-0.296334 0.83608,-0.296334 0.52917,0 0.8308,0.296334 0.30691,0.296333 0.30691,0.809625 v 0.777876 q 0,0.513292 -0.30691,0.814917 -0.30163,0.296333 -0.8308,0.296333 z m 0,-0.423333 q 0.31221,0 0.48684,-0.174625 0.17462,-0.174625 0.17462,-0.513292 v -0.772584 q 0,-0.338667 -0.17462,-0.513292 -0.17463,-0.174625 -0.48684,-0.174625 -0.30691,0 -0.48683,0.174625 -0.17463,0.174625 -0.17463,0.513292 v 0.772584 q 0,0.338667 0.17463,0.513292 0.17992,0.174625 0.48683,0.174625 z m 3.16971,0.433917 q -0.50271,0 -0.80434,-0.296334 -0.30162,-0.301625 -0.30162,-0.814917 v -1.852084 h 0.47625 v 1.852084 q 0,0.328084 0.16933,0.513292 0.16934,0.179917 0.46038,0.179917 0.29633,0 0.46566,-0.179917 0.17463,-0.185208 0.17463,-0.513292 v -1.852084 h 0.47625 v 1.852084 q 0,0.513292 -0.30692,0.814917 -0.30691,0.296334 -0.80962,0.296334 z m 3.09033,-0.01058 q -0.4498,0 -0.73555,-0.206375 -0.28575,-0.206375 -0.28575,-0.566208 h 0.48684 q 0,0.164041 0.15346,0.259291 0.15875,0.08996 0.39158,0.08996 h 0.22225 q 0.28046,0 0.41804,-0.111125 0.13758,-0.116417 0.13758,-0.306917 0,-0.185209 -0.13229,-0.291042 -0.127,-0.111125 -0.37041,-0.148167 l -0.39159,-0.0635 q -0.43391,-0.07408 -0.64029,-0.275167 -0.20637,-0.201083 -0.20637,-0.555625 0,-0.396875 0.254,-0.608542 0.25929,-0.211667 0.74083,-0.211667 h 0.20108 q 0.4445,0 0.70909,0.201084 0.26987,0.195792 0.26987,0.523875 h -0.48683 q 0,-0.137583 -0.13759,-0.216958 -0.13229,-0.08467 -0.36512,-0.08467 h -0.20108 q -0.24871,0 -0.3863,0.105833 -0.13229,0.100542 -0.13229,0.291042 0,0.3175 0.44979,0.391584 l 0.39159,0.0635 q 0.47096,0.07408 0.68262,0.275167 0.21696,0.201083 0.21696,0.582083 0,0.402167 -0.25929,0.635001 -0.254,0.227541 -0.77258,0.227541 z m 5.11703,-0.04233 1.00541,-3.862919 h 0.6403 l 1.00012,3.862919 h -0.48154 l -0.254,-1.026584 h -1.16946 l -0.254,1.026584 z m 0.83608,-1.428751 h 0.97367 l -0.29633,-1.190626 q -0.0847,-0.338666 -0.1323,-0.566208 -0.0476,-0.227542 -0.0582,-0.296334 -0.0106,0.06879 -0.0582,0.296334 -0.0476,0.227542 -0.1323,0.560917 z m 2.56116,1.428751 v -3.862919 h 1.24354 q 0.53975,0 0.85725,0.312209 0.32279,0.306916 0.32279,0.8255 0,0.518584 -0.32279,0.830792 -0.3175,0.306917 -0.85725,0.306917 h -0.76729 v 1.587501 z m 0.47625,-2.016126 h 0.76729 q 0.31221,0 0.49741,-0.1905 0.19051,-0.195792 0.19051,-0.518584 0,-0.328083 -0.19051,-0.518584 -0.1852,-0.1905 -0.49741,-0.1905 h -0.76729 z m 2.76753,2.016126 v -0.433917 h 0.78846 V 45.3464 h -0.78846 v -0.433917 h 2.06375 V 45.3464 h -0.78845 v 2.995085 h 0.78845 v 0.433917 z m 4.11692,0.04233 q -0.4498,0 -0.73555,-0.206375 -0.28575,-0.206375 -0.28575,-0.566208 h 0.48684 q 0,0.164041 0.15346,0.259291 0.15875,0.08996 0.39158,0.08996 h 0.22225 q 0.28046,0 0.41804,-0.111125 0.13758,-0.116417 0.13758,-0.306917 0,-0.185209 -0.13229,-0.291042 -0.127,-0.111125 -0.37041,-0.148167 l -0.39159,-0.0635 q -0.43392,-0.07408 -0.64029,-0.275167 -0.20638,-0.201083 -0.20638,-0.555625 0,-0.396875 0.254,-0.608542 0.2593,-0.211667 0.74084,-0.211667 h 0.20108 q 0.4445,0 0.70909,0.201084 0.26987,0.195792 0.26987,0.523875 h -0.48683 q 0,-0.137583 -0.13759,-0.216958 -0.13229,-0.08467 -0.36512,-0.08467 h -0.20108 q -0.24871,0 -0.3863,0.105833 -0.13229,0.100542 -0.13229,0.291042 0,0.3175 0.44979,0.391584 l 0.39159,0.0635 q 0.47096,0.07408 0.68262,0.275167 0.21696,0.201083 0.21696,0.582083 0,0.402167 -0.25929,0.635001 -0.254,0.227541 -0.77258,0.227541 z"
       id="text419"
       style="font-size:5.29167px;font-family:'JetBrains Mono';-inkscape-font-specification:'JetBrains Mono, Normal';fill:#308c88;stroke:#102e2d;stroke-width:0;stroke-opacity:1"
       aria-label="Simple Commands, Serious APIs" /><g
       inkscape:label="Layer 1"
       id="layer1-2"
       transform="matrix(0.49532444,0,0,0.49532444,-10.3006,-2.6228037)"><g
         id="g145"
         transform="matrix(0.101973,0,0,0.101973,42.90972,40.995346)"><g
           id="#ffffffff" /><g
           id="#dd9da0ff"><path
             fill="#dd9da0"
             opacity="1"
             d="m 123.36,3.37 c 3.22,-0.4 6.48,-0.5 9.72,-0.16 128.65,10.87 257.33,21.35 386,32.02 24.65,2.2 49.35,3.94 73.96,6.51 19.12,2.46 36.81,13.95 46.82,30.43 8.86,14.1 11.59,31.65 8.26,47.89 -28.3,138.38 -56.6,276.75 -84.89,415.13 -6.01,31.63 -12.88,63.09 -19.44,94.61 -6.42,27.51 -32.62,48.42 -60.77,49.23 -8.96,0.48 -17.7,-1.84 -26.44,-3.46 -128,-24.71 -256,-49.4 -384,-74.13 C 62.44,599.34 51.86,598.32 42.53,593.5 22.84,584.29 8.53,564.64 5.93,543.04 4.29,532.35 6.63,521.66 7.79,511.06 26.84,360.45 45.36,209.77 64.38,59.16 68.34,29.95 93.94,5.66 123.36,3.37 Z"
             id="path133" /></g></g><g
         id="g181"
         transform="matrix(0.101973,0,0,0.101973,47.869276,44.476164)"><g
           id="#ffffffff-0" /><g
           id="#cf7377ff"><path
             fill="#cf7377"
             opacity="1"
             d="m 473.27,3.27 c 5.91,-0.34 11.84,-0.52 17.75,-0.85 17.74,-0.67 35.48,7 47.29,20.23 11.09,10.2 15.79,25.63 16.48,40.32 -9.76,153.21 -19.47,306.45 -29.26,459.67 -3.12,18.21 0.18,37.96 -9.11,54.73 -9.26,22.27 -34.19,35.36 -57.73,33.98 C 324.67,604.44 190.66,597.08 56.65,590.33 52.61,589.36 48.96,587.27 45.08,585.83 25.84,577.71 11.48,559.24 8.52,538.55 6.09,503.11 8.12,467.47 6.23,432 6.28,412 5.96,392 6.05,372 4.62,345.71 5.29,319.33 5.05,293 3.32,264.71 4.63,236.33 4.01,208 4.11,166.68 2.58,125.37 2.82,84.04 3.44,66.83 12.1,50.25 25.48,39.49 36.66,28.68 52.85,25.03 67.98,25.1 149.8,20.51 231.64,16.09 313.47,11.58 328.65,10.84 343.81,9.44 359.03,9.63 397.11,7.42 435.2,5.49 473.27,3.27 Z"
             id="path169" /></g></g><g
         id="#ffffffff-8"
         transform="matrix(0.101973,0,0,0.101973,55.345652,52.421836)" /><g
         id="#000000ff"
         transform="matrix(0.101973,0,0,0.101973,55.345652,52.421836)"
         style="fill:#ffffff"><path
           fill="#000000"
           opacity="1"
           d="m 194.3,5.03 c 0.38,-0.33 1.14,-1 1.51,-1.34 6.46,0.09 12.92,0.1 19.38,0 0.37,0.33 1.12,1 1.49,1.34 7.05,-0.85 13.74,0.64 20.5,1.84 35.22,6.05 68.17,23.56 94.62,47.34 4.92,5.07 9.93,10.05 14.98,14.99 28.06,31.23 47.02,70.59 55.24,111.66 0.53,5.21 2.55,10.15 1.96,15.44 0.33,0.39 0.98,1.15 1.31,1.53 -0.11,2.5 -0.2,5 -0.32,7.49 0.34,0.38 1,1.13 1.33,1.51 -0.08,6.86 -0.51,13.74 -0.18,20.59 0.29,0.35 0.86,1.04 1.15,1.38 -2.92,6.84 -0.39,15.01 -0.98,22.37 -0.33,0.38 -0.99,1.15 -1.32,1.53 0.12,2.49 0.21,4.98 0.32,7.47 -0.33,0.39 -0.98,1.15 -1.31,1.54 -1.98,25.38 -10.79,50.42 -21.2,73.81 -1.1,1.38 -2.07,2.86 -2.8,4.47 -7.45,16.01 -17.67,30.61 -28.98,44.06 -2.89,4.36 -7.8,7.01 -10.15,11.8 -5.29,2.8 -8.47,8.14 -13.14,11.7 -25.93,21.82 -57.28,38.38 -90.96,43.74 -2.16,1.29 -4.69,0.82 -7.06,0.7 -0.38,0.32 -1.14,0.97 -1.52,1.29 -2.83,-0.12 -5.65,-0.19 -8.48,-0.31 -0.37,0.34 -1.13,1 -1.5,1.33 -8.46,-0.19 -16.92,-0.18 -25.38,0 -0.38,-0.33 -1.14,-1 -1.52,-1.33 -2.82,0.12 -5.64,0.19 -8.46,0.3 -0.38,-0.31 -1.14,-0.95 -1.53,-1.27 -25.89,-2.03 -50.81,-12.87 -73.12,-26.15 -10.63,-7.2 -21.54,-14.28 -30.43,-23.59 -4.39,-2.83 -8.28,-6.55 -11.2,-10.88 C 35.9,358.95 16.21,316.65 7.9,273.12 7.63,266.55 5.13,260.4 6.03,253.71 c -0.33,-0.38 -1,-1.15 -1.33,-1.53 0.12,-5.5 0.25,-11.01 0.34,-16.51 -0.34,-0.37 -1.02,-1.11 -1.36,-1.48 0.06,-3.46 0.05,-6.92 0,-10.38 0.34,-0.37 1.02,-1.12 1.36,-1.5 -0.1,-5.5 -0.22,-10.99 -0.34,-16.49 0.33,-0.38 1,-1.14 1.33,-1.51 1.05,-28.06 10.83,-55.91 22.16,-81.82 2.84,-3.52 4.34,-7.87 6.44,-11.84 C 44.29,93 56.6,76.91 70.41,62.41 74.39,59.83 77.3,55.96 80.7,52.69 107.43,29.65 140.21,11.92 175.34,6.88 c 2.11,-2.06 5.27,-0.76 7.88,-0.84 0.4,-0.33 1.21,-0.98 1.61,-1.31 3.16,0.09 6.32,0.14 9.47,0.3 m -2.12,23.29 c -2.82,-0.08 -5.64,-0.15 -8.45,-0.34 -0.39,0.32 -1.17,0.97 -1.56,1.29 -3.77,-0.32 -7.66,0.49 -11.04,1.87 -28.09,4.99 -53.83,20.2 -75.39,38.6 -4.91,5.09 -9.9,10.1 -15,15 -9.72,11.16 -18.44,23.32 -25.76,36.24 -1.83,3.52 -3.13,7.37 -5.67,10.48 -6.42,15.13 -13.36,30.41 -16.24,46.73 -0.27,0.4 -0.82,1.21 -1.09,1.61 0.06,0.83 0.17,2.5 0.22,3.33 -2.67,10.54 -4.47,21.77 -3.88,33.05 -0.34,0.37 -1.01,1.12 -1.34,1.49 0.19,7.86 0.2,15.73 -0.03,23.59 0.34,0.39 1.02,1.17 1.35,1.56 -0.07,3.49 -0.1,6.99 -0.32,10.49 0.34,0.38 1.01,1.14 1.34,1.52 -0.1,2.14 -0.19,4.28 -0.33,6.42 0.33,0.39 0.98,1.19 1.31,1.58 0.07,2.34 -1.09,5.16 0.85,7.04 2.62,20.42 10.57,40.09 19.15,58.82 7.59,13.9 15.66,27.74 26.25,39.6 2.46,4.47 7.52,6.78 9.83,11.33 5.42,3.05 8.51,8.96 13.66,12.39 21.89,17.93 47.87,31.52 75.89,36.4 4.75,0.65 9.31,2.11 14.25,1.25 0.37,0.34 1.12,1.02 1.5,1.36 9.04,-0.42 18.1,-0.2 27.15,-0.12 3.05,-2.32 7,-0.07 10.23,-1.51 14.28,-2.26 28.85,-5.93 42.11,-12.31 55.52,-24.45 94.29,-78.7 106.77,-137.27 0.27,-0.4 0.81,-1.2 1.08,-1.6 -0.06,-0.84 -0.18,-2.54 -0.24,-3.38 0.31,-0.39 0.92,-1.18 1.22,-1.57 -1.01,-3.67 1.82,-6.75 0.77,-10.43 0.31,-0.39 0.94,-1.17 1.25,-1.56 -0.13,-2.48 -0.21,-4.96 -0.32,-7.44 0.33,-0.38 0.99,-1.14 1.32,-1.51 -0.19,-3.83 -0.21,-7.66 -0.32,-11.49 0.34,-0.37 1,-1.13 1.33,-1.51 -0.09,-6.87 -0.1,-13.74 0.01,-20.6 -0.33,-0.39 -1,-1.16 -1.33,-1.54 0.1,-3.83 0.12,-7.65 0.31,-11.47 -0.33,-0.39 -0.98,-1.16 -1.31,-1.54 0.1,-2.47 0.19,-4.95 0.32,-7.42 -0.32,-0.39 -0.96,-1.19 -1.28,-1.58 0.08,-1.49 0.18,-2.97 0.27,-4.46 -0.31,-0.39 -0.93,-1.17 -1.23,-1.56 0.7,-3.28 -1.79,-6.07 -0.8,-9.39 -0.26,-0.39 -0.77,-1.18 -1.03,-1.58 -8.14,-38.23 -27.65,-74.24 -55.22,-101.92 -23.21,-22.47 -52.67,-39.32 -84.48,-45.88 -6.54,-0.97 -12.72,-3.03 -19.44,-2.05 -0.38,-0.33 -1.12,-1.01 -1.5,-1.34 -7.87,0.27 -15.76,0.27 -23.63,0 -0.38,0.33 -1.13,1 -1.51,1.33 z"
           id="path148"
           style="fill:#ffffff" /><path
           fill="#000000"
           opacity="1"
           d="m 150.72,72.51 c 11.14,-8.05 24.39,-13.3 36.58,-19.25 -0.23,116.61 -0.02,233.23 -0.1,349.84 -13,-3.29 -24.53,-11.43 -36.44,-17.59 0.06,-47.14 -0.13,-94.29 0.09,-141.43 -19.24,0.15 -38.49,0.15 -57.73,0 1.92,26.09 12.69,51.81 28.93,72.57 -0.01,0.48 -0.01,1.45 -0.01,1.93 -7.61,7.09 -16.28,12.95 -23.47,20.52 -0.53,0 -1.61,0 -2.14,0 -18.29,-23 -32.96,-50.14 -37.56,-79.44 -2,-1.85 -0.5,-4.66 -1.11,-6.95 -1.74,-2.71 -0.71,-6.04 -0.72,-9.03 -0.34,-0.38 -1.02,-1.12 -1.35,-1.5 0.35,-13.24 -0.62,-26.59 2.17,-39.3 3.44,-24.93 13.72,-49.14 27.94,-70.08 3.2,-5.87 8.3,-10.44 11.48,-16.26 4.53,5.61 10.59,9.46 15.53,14.61 4.27,1.74 6,7.44 10.7,7.9 -14.51,17.41 -24.82,38.6 -28.55,60.99 -1.17,1.86 -0.84,4.06 -0.69,6.13 -0.33,0.39 -0.98,1.16 -1.31,1.55 0.11,1.76 0.19,3.52 0.27,5.28 19.17,-0.01 38.35,0.02 57.53,-0.01 -0.03,-46.83 0.04,-93.65 -0.04,-140.48 z"
           id="path150"
           style="fill:#ffffff" /><path
           fill="#000000"
           opacity="1"
           d="m 221.73,53.11 c 2.96,3.84 8.01,4.68 11.86,7.3 8.61,4.96 16.59,10.91 24.47,16.93 -0.12,42.1 0.07,84.2 -0.09,126.3 10.32,8.23 19.89,17.26 30.04,25.7 8.96,-8.01 19.29,-14.44 27.91,-22.83 0.04,-1.56 0.21,-3.22 -1.07,-4.38 -1.46,-13.65 -7.62,-26.37 -13.15,-38.83 -5.06,-7.73 -8.54,-16.71 -15.25,-23.23 7.73,-7.69 16.53,-14.17 24,-22.19 0.53,0.01 1.59,0.04 2.13,0.05 18.17,23.91 33.37,51.59 38.56,81.42 2.7,2.61 -0.74,6.97 2.08,9.55 0.05,3.24 -0.1,6.49 -0.04,9.74 -15.91,13.02 -31.54,26.32 -47.08,39.77 0.13,29.35 0.04,58.71 0.05,88.06 -3.03,2.59 -5.67,5.53 -7.77,8.91 -5.73,3.11 -9.05,9.08 -14.54,12.49 -4.51,3.87 -9.34,7.35 -14.2,10.75 0.26,-40.42 -0.09,-80.84 0.18,-121.25 -12.54,-11.54 -25.57,-22.48 -38.2,-33.91 -3.9,-1.87 -5.65,-6.55 -9.83,-7.89 -0.03,-54.15 0.09,-108.31 -0.06,-162.46 z"
           id="path152"
           style="fill:#ffffff" /></g></g><g
       id="g1"><path
         d="m 191.29533,257.07775 q -0.49444,0 -0.75974,-0.21707 -0.25325,-0.21706 -0.26531,-0.43413 l -0.0121,-0.20501 v -3.78662 q 0,-0.95268 -0.5065,-1.21799 -0.24118,-0.12059 -0.61502,-0.12059 -0.74768,0 -1.35064,0.61502 -0.59091,0.60297 -0.59091,1.08534 v 4.28105 h -0.84415 v -9.03241 h 0.84415 v 4.37752 q 0.19295,-0.51855 0.73562,-0.96474 0.54267,-0.45826 1.21799,-0.45826 1.16975,0 1.55565,0.41002 0.39796,0.39796 0.39796,1.0371 v 3.77456 q 0,0.34972 0.13265,0.54267 0.14471,0.18089 0.27736,0.19295 l 0.14471,0.0241 h 0.37384 v 0.0965 z m 2.52037,2.15862 q -0.3859,0.85621 -0.95268,0.85621 -0.25325,0 -0.59091,-0.0844 v -0.0965 q 0.27737,0.0723 0.49443,0.0723 0.61503,0 0.94063,-0.74767 l 1.01298,-2.15862 h -0.0121 l -2.24303,-6.02965 h 0.84415 l 1.86919,5.02873 1.84508,-3.8228 q 0.14471,-0.25324 0.14471,-0.60296 0,-0.34972 -0.19295,-0.53061 l 0.0724,-0.0724 q 0.0482,0.0241 0.1206,0.14471 0.0844,0.1206 0.0965,0.21707 0.0241,0.0965 0.0241,0.18089 0,0.3256 -0.14471,0.66326 l -2.31539,4.82372 z m 4.25691,-8.18827 h 0.84415 v 1.49535 q 0.20501,-0.55472 0.75973,-1.04915 0.55473,-0.49444 1.25417,-0.49444 2.44804,0 2.44804,2.87012 0,3.25601 -3.15954,3.25601 -0.56678,0 -1.3024,-0.26531 v 3.2319 h -0.84415 z m 2.84599,0.0482 q -0.74767,0 -1.35064,0.6512 -0.60296,0.63914 -0.6512,1.15769 v 3.84692 q 0.73562,0.27736 1.29034,0.27736 2.32745,0 2.32745,-3.17159 0,-2.76158 -1.61595,-2.76158 z m 4.24486,3.03894 q 0,1.49536 0.51855,2.19479 0.53061,0.69944 1.38682,0.69944 1.20593,0 2.14656,-0.36178 l 0.0362,0.0844 q -0.96474,0.37384 -2.18273,0.37384 -1.20593,0 -1.96566,-0.72356 -0.75974,-0.72356 -0.75974,-2.23097 0,-1.50741 0.79591,-2.3395 0.79592,-0.8321 2.02597,-0.8321 0.98886,0 1.66418,0.59091 0.67532,0.59091 0.67532,1.7486 0,0.0603 0,0.12059 h -4.30517 q -0.0362,0.3256 -0.0362,0.67532 z m 3.52132,-0.77179 q -0.0121,-1.1577 -0.4462,-1.71242 -0.43413,-0.55473 -1.12151,-0.55473 -0.68738,0 -1.23005,0.60296 -0.53061,0.60297 -0.67532,1.66419 z m 3.61776,-1.79684 v -0.25324 q -0.54267,0.21706 -0.98886,0.88032 -0.44619,0.65121 -0.47031,1.23005 v 3.65397 h -0.84415 v -6.02965 h 0.84415 v 1.91743 q 0.19295,-0.69944 0.73561,-1.31446 0.54267,-0.62709 1.23005,-0.65121 h 0.0482 q 0.24119,0 0.39796,0.16883 0.16883,0.15677 0.16883,0.39796 0,0.24119 -0.16883,0.39796 -0.15677,0.15677 -0.39796,0.15677 -0.24119,0 -0.39796,-0.15677 -0.15677,-0.15677 -0.15677,-0.39796 z m 9.29771,0.86827 q 0,-0.73562 -0.19294,-1.0371 -0.19295,-0.30148 -0.73562,-0.30148 -0.72356,0 -1.29035,0.60296 -0.55472,0.60297 -0.55472,1.08534 v 4.29311 h -0.84416 v -4.64283 q 0,-0.73562 -0.19294,-1.0371 -0.19295,-0.30148 -0.82004,-0.30148 -0.62708,0 -1.19387,0.57884 -0.55473,0.57885 -0.60296,1.07328 v 4.32929 h -0.84415 v -6.02965 h 0.84415 v 1.3627 q 0.19295,-0.51855 0.7115,-0.96474 0.51855,-0.4462 1.15769,-0.4462 0.63914,0 1.01298,0.1206 0.3859,0.10853 0.54267,0.34972 0.15677,0.24118 0.19295,0.42207 0.0362,0.18089 0.0362,0.50649 0.19294,-0.51855 0.69944,-0.95268 0.50649,-0.4462 1.08533,-0.4462 0.57885,0 0.92857,0.0965 0.34972,0.0965 0.51855,0.21707 0.18089,0.12059 0.2653,0.34972 0.0965,0.22912 0.10854,0.37383 0.0121,0.14472 0.0121,0.41002 v 3.77456 q 0,0.34972 0.13265,0.54267 0.14471,0.18089 0.28942,0.19295 l 0.13265,0.0241 h 0.37384 v 0.0965 h -0.73562 q -0.49443,0 -0.75973,-0.21707 -0.25325,-0.21706 -0.26531,-0.43413 l -0.0121,-0.20501 z m 2.95452,1.70036 q 0,1.49536 0.51855,2.19479 0.53061,0.69944 1.38682,0.69944 1.20593,0 2.14655,-0.36178 l 0.0362,0.0844 q -0.96474,0.37384 -2.18273,0.37384 -1.20593,0 -1.96567,-0.72356 -0.75973,-0.72356 -0.75973,-2.23097 0,-1.50741 0.79591,-2.3395 0.79591,-0.8321 2.02596,-0.8321 0.98887,0 1.66419,0.59091 0.67532,0.59091 0.67532,1.7486 0,0.0603 0,0.12059 h -4.30517 q -0.0362,0.3256 -0.0362,0.67532 z m 3.52132,-0.77179 q -0.0121,-1.1577 -0.4462,-1.71242 -0.43413,-0.55473 -1.12151,-0.55473 -0.68738,0 -1.23005,0.60296 -0.53061,0.60297 -0.67532,1.66419 z m 6.65671,3.71426 q -0.82003,0 -1.12151,-0.31354 -0.27737,-0.26531 -0.27737,-0.45825 v -0.25325 q -0.5909,1.07328 -1.89331,1.07328 -1.51947,0 -1.72448,-1.37476 -0.0241,-0.14471 -0.0241,-0.28943 0,-0.15677 0.0482,-0.33766 0.0482,-0.18088 0.27737,-0.39795 0.45825,-0.43414 2.0139,-0.53061 0.3859,-0.0362 0.7115,-0.0362 0.3256,0 0.5909,0.0241 v -2.00184 q -0.0241,-0.0121 0,-0.10854 0.0241,-0.10853 -0.0482,-0.2653 -0.0603,-0.16883 -0.16883,-0.3256 -0.10854,-0.15678 -0.3859,-0.26531 -0.27737,-0.12059 -0.72356,-0.12059 -0.44619,0 -1.04916,0.16883 -0.5909,0.15677 -0.86827,0.31354 l -0.0482,-0.0844 q 1.07328,-0.49444 2.18274,-0.49444 1.24211,0 1.64006,0.4462 0.31354,0.34972 0.31354,0.73562 v 4.03986 q 0,0.34972 0.13266,0.54267 0.14471,0.18089 0.28942,0.19295 l 0.13265,0.0241 h 0.37384 v 0.0965 z m -3.09924,-0.0482 q 0.63915,0 1.14564,-0.43413 0.51855,-0.44619 0.55472,-0.85621 v -1.45918 q -0.3256,-0.0241 -0.66326,-0.0241 -0.3256,0 -0.6512,0.0362 -0.91651,0.10854 -1.19387,0.41002 -0.27736,0.30148 -0.27736,0.83209 0,0.0965 0.0121,0.21707 0.10854,1.27828 1.07328,1.27828 z"
         id="text1091"
         style="font-size:12.0593px;font-family:Italiana;-inkscape-font-specification:'Italiana, Normal';white-space:pre;fill:#308c88;stroke:#808080;stroke-width:0"
         transform="matrix(1.8722339,0,0,1.8722339,-301.57566,-443.65009)"
         aria-label="hypermea" /><path
         style="fill:#102e2d;fill-opacity:1;stroke:#102e2d;stroke-width:0.0501815;stroke-dasharray:none;stroke-opacity:1"
         d="M 71.097379,39.317986 H 97.929498"
         id="path1" /><path
         style="fill:#102e2d;fill-opacity:1;stroke:#102e2d;stroke-width:0.05;stroke-dasharray:none;stroke-opacity:1"
         d="m 67.946682,39.317895 h 1.043893"
         id="path1-1" /></g></g></svg>
